<?xml version="1.0" encoding="UTF-8"?>
<!DOCTYPE svg PUBLIC "-//W3C//DTD SVG 1.1//EN" "http://www.w3.org/Graphics/SVG/1.1/DTD/svg11.dtd">
<!-- Creator: CorelDRAW X7 -->
<svg xmlns="http://www.w3.org/2000/svg" xml:space="preserve" width="6.311cm" height="2.861cm" version="1.1" style="shape-rendering:geometricPrecision; text-rendering:geometricPrecision; image-rendering:optimizeQuality; fill-rule:evenodd; clip-rule:evenodd"
viewBox="0 0 3640 1650"
 xmlns:xlink="http://www.w3.org/1999/xlink">
 <defs>
  <style type="text/css">
   <![CDATA[
    .fil0 {fill:#363435}
    .fil2 {fill:#958F91}
    .fil3 {fill:#BDB8B8}
    .fil1 {fill:#FEFEFE}
   ]]>
  </style>
 </defs>
 <g id="Layer_x0020_1">
  <metadata id="CorelCorpID_0Corel-Layer"/>
  <g id="_2194768503712">
   <path class="fil0" d="M1800 848l9 -22 7 -10 0 -12c-1,-13 -5,-11 7,-11l2 -9 6 -11 8 -2 6 11 1 12 6 11 2 8c12,0 7,-3 7,12l0 11 6 11 0 4 116 3 -15 15 -16 5 -8 8 -4 1 -8 9 -13 5c0,11 3,9 -8,9l-17 5 2 22 5 12 1 11 7 11 2 2 0 13 6 11 2 11c1,1 4,1 3,3l-25 -6 -10 -8c-10,0 -8,2 -8,-9l-11 -7 -20 -13 -19 -10 -7 8 -11 8 -19 13 -11 8c0,11 2,8 -8,9l-19 10 -2 -8 6 -12 2 -15 5 -13 2 -12 5 -12 0 -12 -12 -20 0 -2 -8 -8 -15 -6 -8 -8 -16 -5c-10,0 -7,3 -7,-9l-1 -1 -16 -11 111 -8zm5 -112c-233,62 -143,363 57,332 228,-35 151,-385 -57,-332z"/>
   <path class="fil0" d="M152 637c-104,-79 -154,-240 -89,-357 59,-102 172,-207 292,-230 -43,69 -18,19 -25,58l-87 215c-16,51 -34,101 -51,152 -16,50 -24,120 -40,162zm0 65l108 -348c36,-103 93,-242 130,-318 100,-24 121,-25 182,14 0,102 -73,156 -150,234 -38,38 -191,153 -179,196 69,23 255,-79 300,-9 30,58 -144,165 -196,187 -48,20 -70,28 -101,-7l13 44c90,0 126,-26 193,-76l66 -64c15,-16 60,-33 46,-77 -62,-95 -209,-17 -296,-15 42,-64 457,-371 280,-446 -66,-28 -164,-1 -231,26 -126,50 -227,141 -285,263 -48,100 9,234 71,306 38,45 49,25 49,90zm109 -51l-3 -2c0,0 2,3 3,2z"/>
   <path class="fil0" d="M991 644c0,-17 9,0 4,0 0,0 -4,18 -4,0zm7 -14c3,-105 46,-174 46,-177 11,-31 8,-27 20,-48 9,23 -49,200 -66,225zm312 -580c16,8 38,-6 79,-6 68,131 -165,451 -103,515 21,3 73,-90 74,-110 -33,37 -10,-1 -43,35 24,-103 146,-329 109,-420 -20,-48 -88,-53 -116,-14zm37 413c7,-9 -13,-25 -4,-9 0,2 -10,21 4,9zm20 -14l-1 -2c0,0 0,2 1,2zm-81 -375c19,3 19,-5 24,-24 -20,7 -26,7 -24,24zm-6 4c-10,-11 -16,-5 -6,5 5,4 25,15 6,-5zm-21 9c-1,1 2,1 2,2 0,1 1,1 1,1l-3 -3zm0 15c-3,-2 8,-20 -17,6 -21,20 -8,11 -6,15 14,14 0,8 15,-7 14,-13 11,-5 8,-14zm-36 21c-1,1 1,1 1,3l-1 -3zm-53 71l-6 -4c1,-2 51,-149 15,-190 -35,4 -60,72 -29,94l10 -51c0,63 -26,135 -35,187 -9,63 -46,102 -70,159 -30,65 -135,301 -64,349 40,-28 122,-387 158,-472 23,-58 57,-75 74,-135l-53 63zm-106 196l2 3c0,0 -3,-1 -2,-3zm7 -14l2 2c0,0 -3,-1 -2,-2z"/>
   <path class="fil0" d="M2542 697l-27 0 22 29c53,-18 129,-235 133,-284l110 -34c-15,-3 -23,-3 -37,-1 -1,1 -3,1 -5,1 -1,0 -3,1 -5,1 -44,11 -25,15 -56,18 0,-1 92,-338 94,-340 54,-48 303,-82 349,-2 16,37 -1,55 -9,89 82,-60 -1,-147 -86,-161 -74,-13 -178,19 -254,37l3 -48c-37,0 -25,16 -44,51 5,27 28,-16 12,16 -5,9 -38,18 -49,22l-57 20c-5,2 -12,1 -13,2l-12 13c-48,19 28,-9 -13,-10 -15,-1 -76,35 -94,45 -1,0 -3,2 -3,2l-42 18c-40,8 -146,43 -130,87 37,23 134,-34 177,-56 29,-14 57,-26 88,-35 16,-5 34,-10 51,-14 41,-10 21,9 39,-25 -75,0 -128,41 -195,58 39,-35 198,-84 253,-109 -1,76 -49,211 -71,291 -12,44 3,30 -10,41 -31,25 -88,-8 -92,44 33,0 35,-6 64,-9 53,-5 12,-6 3,36l-36 98c-5,22 3,-1 -6,13 -14,20 -37,68 -52,96zm-60 -523l-2 -2c0,0 1,2 2,2zm622 0c-1,0 2,1 2,2l-2 -2zm-7 7c-1,1 2,1 2,2l-2 -2zm-493 397l3 3c-1,0 -3,-1 -3,-3zm-166 -367l3 1c0,0 -4,-1 -3,-1zm43 -18l-28 19 28 -19zm108 -65l-27 19 27 -19z"/>
   <path class="fil0" d="M702 507l-2 2c0,0 2,-1 2,-2zm0 14l2 -3c0,0 -3,2 -2,3zm14 -7c1,-1 -1,-3 -1,-2l0 0c0,0 0,2 1,2zm-7 -15l-3 3c0,0 4,-2 3,-3zm7 0c1,-1 -1,-2 -1,-2l0 0c0,0 0,3 1,2zm8 -6l-3 -3c0,0 2,3 3,3zm7 -6c12,12 11,-5 2,-4 0,0 -18,-11 -2,4zm14 -9c1,-1 -2,-4 -2,-3l0 0c0,1 2,4 2,3zm-209 290c25,-57 27,-82 67,-135 26,-33 83,-85 92,-119 -51,37 -195,205 -166,267 55,26 135,-91 162,-133 37,-57 66,-169 107,-204 -3,-36 14,26 -6,-8 -20,-35 17,-62 -38,-97 -44,13 -82,92 -110,124 3,-32 38,-80 20,-107 -20,6 -32,43 -43,77 -13,36 -19,65 1,95 57,-29 66,-154 138,-173 19,81 3,59 -10,118 -10,47 -30,73 -50,118 -23,53 -100,170 -164,177zm312 -360c-26,3 -37,5 -45,26l45 -26zm-124 85l2 1c0,0 -1,-3 -2,-1zm-87 -23l2 2c-1,0 -3,-1 -2,-2z"/>
   <path class="fil1" d="M1831 773c0,13 5,11 -6,11l-2 9 -7 11 0 12c2,13 5,10 -7,10l-9 22c-13,17 -1,12 -33,14 -14,0 -32,-2 -45,-2l-17 7 1 1 7 9 16 5 8 8 15 6c10,0 8,-2 8,8l0 2 19 9 -7 11 0 12 -5 12 -2 12 -5 13 -2 15c2,14 7,12 -6,12l2 8 19 -10 8 -9 11 -8c6,-7 -4,-4 19,-13l11 -8c0,-11 -4,-8 7,-8l19 10c21,8 14,6 20,13l11 7 8 9 10 8c17,8 6,4 22,3l-2 -11c-12,0 -9,2 -6,-11l0 -13 -9 -2 0 -11 -1 -11 -5 -12 -2 -22 17 -5 8 -9 13 -5c0,-12 -3,-9 8,-9l4 -1c0,-11 -2,-8 8,-8l16 -5c-26,-24 -84,7 -101,-18l0 -4 -6 -11 0 -11 -7 -12 -2 -8c-12,0 -9,2 -6,-11l-1 -12c-11,0 -8,2 -6,-11l-8 2z"/>
   <path class="fil0" d="M1838 470l2 2c0,0 -3,-1 -2,-2zm212 -34l-19 18 19 -18zm-3 34c0,77 62,48 86,27 23,-20 56,-60 59,-92 -35,26 -72,104 -117,96 -12,-30 15,-95 31,-125 -29,1 -37,1 -50,32 -4,9 -9,48 -9,62zm-22 -13c-6,7 13,23 4,7 0,0 10,-20 -4,-7zm-151 130c-37,-75 -13,-167 12,-243 34,-104 49,-110 78,-176 16,-35 3,-32 -12,-24 -13,7 -72,127 -75,135l-45 200c-7,39 12,147 80,124 41,-12 104,-91 114,-133 -71,50 -58,117 -152,117zm-43 -188c-7,6 9,21 3,7 0,0 7,-18 -3,-7zm-7 14c-8,7 11,27 3,7 0,0 5,-17 -3,-7zm-8 14c-1,0 2,1 2,2l-2 -2zm-7 7c-1,1 2,1 2,3l-2 -3zm43 -44l2 3c0,0 -2,-1 -2,-3z"/>
   <path class="fil0" d="M2828 479c0,-3 3,-7 4,-6 4,13 4,-7 5,-9 3,-7 6,-14 9,-20 17,-38 38,-62 77,-82 10,26 -10,20 32,54 1,1 2,3 4,4 -3,41 -19,86 37,101 28,-3 57,-30 64,-58 -29,19 -52,50 -81,38 -18,-86 30,-116 -1,-144 -12,-12 -91,-23 -124,21 -86,117 -30,184 21,88 22,-43 28,-21 41,-76l-88 89zm95 -89l-3 -2c0,0 1,1 1,1 0,0 2,3 2,1zm145 71c0,0 20,-19 1,-13 -9,2 -22,17 -1,13zm-116 -85l3 2c0,0 -3,-1 -3,-2z"/>
   <path class="fil0" d="M3494 507c0,-26 0,-23 6,-46 3,-7 2,-8 6,-16 13,-26 1,9 29,-35 16,-22 0,-16 32,-20 -1,48 -36,93 -73,117zm-101 0c0,-81 14,-69 30,-131 -20,1 -39,-10 -51,58 -9,45 -11,49 14,87 51,0 50,-9 82,-42 1,2 2,3 2,5 10,83 111,11 111,-100 -38,-18 -18,3 -28,-22 -55,1 -34,33 -71,81 -12,16 -69,59 -89,64z"/>
   <path class="fil0" d="M1555 188l-1 2c0,0 2,-1 1,-2zm0 14l3 -1c0,0 -3,1 -3,1zm17 -6c1,0 27,-13 4,-11 -10,1 -25,12 -4,11zm-9 -15l-2 2c0,0 3,-1 2,-2zm7 0l-2 -2c0,0 1,3 2,2zm22 0l-3 -2c0,0 2,3 3,2zm-8 -14l-1 1c0,0 2,-1 1,-1zm42 9c9,71 -20,154 -32,224 -5,26 -26,232 47,177 -29,-16 -31,14 -27,-114 2,-94 112,-338 -30,-304 39,31 18,-2 42,17z"/>
   <path class="fil0" d="M2532 1136l0 137c-38,4 -13,-7 -22,15l51 0c-8,-23 16,-11 -21,-15l0 -101c20,29 25,98 50,116l40 -116 4 101c-38,4 -13,-7 -23,15l66 0c-25,-34 -23,1 -22,-64 0,-30 0,-58 0,-88 39,-3 14,6 22,-15l-43 0 -39 122 -48 -122 -37 0c7,18 -15,14 22,15z"/>
   <path class="fil0" d="M3075 1273l0 -65 66 0c36,74 -6,65 -66,65zm66 -79l-66 0 0 -58c57,0 99,-10 66,58zm-88 -50l0 114c-8,36 0,-6 -14,30l108 0 30 -35c-4,-32 -7,-27 -23,-52l25 -41 -32 -37 -115 -2 21 23z"/>
   <path class="fil0" d="M1715 1136l0 137c-38,4 -14,-7 -22,15l58 0c-23,-35 -14,-70 -14,-116 26,30 39,61 60,92 16,23 7,17 27,24l0 -152c37,-3 12,6 21,-15l-58 0c8,23 -15,11 22,15l0 102c-15,-12 -37,-52 -48,-69 -28,-47 -14,-48 -68,-48 7,18 -15,14 22,15z"/>
   <path class="fil0" d="M2815 1549l0 -59 65 0c15,67 -4,59 -65,59zm-22 -59l0 138c-38,4 -13,-7 -22,15l65 0c-8,-24 16,-11 -21,-15l0 -65c95,0 16,73 94,80 6,-13 5,-10 7,-29 -13,-6 7,-2 -9,0 -16,1 3,4 -14,1l-21 -45c25,-34 37,-7 37,-72 -51,-33 -75,-22 -138,-22 7,18 -15,14 22,14z"/>
   <path class="fil0" d="M108 1194l-64 0 0 -58 64 0c7,26 11,31 0,58zm-108 80l0 0c1,0 6,1 21,-1l0 -137c-14,0 -19,0 -21,0l0 -2c1,-2 2,-6 0,-13 62,0 87,-11 138,23l0 42 -35 24c9,62 30,53 30,53 13,7 0,-20 12,11 -27,36 -41,6 -49,-24 -12,-43 -6,-42 -52,-42l0 65c37,4 13,-8 21,15l-65 0c4,-11 1,-13 0,-14z"/>
   <path class="fil0" d="M1419 1490l0 138c-39,4 -14,-7 -23,15l59 0c-13,-34 -14,5 -16,-51 0,-20 1,-44 1,-65 17,12 30,41 42,59 31,48 20,47 45,57l0 -153c38,-3 13,7 22,-14l-59 0 23 22 0 94c-81,-90 -38,-116 -117,-116 7,18 -15,14 23,14z"/>
   <path class="fil0" d="M2315 1628c-38,4 -13,-7 -21,15l58 0c-13,-34 -14,5 -16,-51 0,-23 1,-49 1,-72 27,29 54,100 86,123l0 -153c39,-3 14,7 23,-14l-51 0c8,23 -16,10 21,14l0 109 -80 -122 -42 -1c12,19 1,-2 11,11 9,13 2,-4 8,13 5,13 3,28 3,41 -1,29 -1,58 -1,87z"/>
   <path class="fil0" d="M2069 1273l0 -137c27,0 69,-9 74,65 2,61 -21,72 -74,72zm-22 -137l0 137c-37,4 -12,-7 -21,15 69,0 136,13 138,-80 2,-97 -65,-87 -138,-87 6,18 -15,14 21,15z"/>
   <path class="fil0" d="M3177 355c-13,44 -73,78 -107,133 -19,32 -17,26 -2,55 36,-1 87,-21 109,-50 -45,0 -56,24 -102,28 42,-82 149,-137 115,-172 -19,-19 -103,0 -111,24 -9,28 17,7 35,0 25,-11 40,-8 63,-18z"/>
   <path class="fil0" d="M3358 1136l0 137c-39,4 -14,-7 -23,15l131 0 0 -58c-22,16 -14,13 -14,43l-73 0 0 -65 29 0c1,44 -5,22 15,30l0 -73c-20,7 -14,-15 -15,29l-29 0 0 -58 73 0 14 43 0 -58 -131 0c7,18 -15,14 23,15z"/>
   <path class="fil0" d="M1772 1628l0 -138c50,0 74,8 74,65 0,63 -19,73 -74,73zm-21 -138l0 138c-38,4 -13,-7 -21,15 68,0 136,12 137,-80 3,-98 -65,-87 -137,-87 5,18 -16,14 21,14z"/>
   <path class="fil0" d="M58 1628l0 -138c50,0 72,8 73,65 2,62 -19,73 -73,73zm-22 -138l0 138c-38,4 -13,-7 -22,15 70,0 137,12 139,-80 3,-98 -66,-87 -139,-87 7,18 -15,14 22,14z"/>
   <path class="fil0" d="M2214 1136l0 137c-37,4 -13,-7 -22,15l130 0 -14 -58 -7 43 -66 0 0 -65 30 0c0,44 -5,22 14,30l0 -73c-19,7 -14,-15 -14,29l-30 0 0 -58 66 0 21 43 0 -58 -130 0c7,18 -14,14 22,15z"/>
   <path class="fil0" d="M1555 1228c-17,-90 70,-130 86,-47 6,30 0,72 -21,85 -31,22 -58,-7 -65,-38zm8 -121c1,2 2,2 3,5l4 9c3,11 2,-2 2,9 -71,32 -38,190 51,154 52,-21 63,-138 -11,-161l-23 -7c0,0 -3,-1 -5,-2l65 0 0 -21 -86 14z"/>
   <path class="fil0" d="M1324 1490c32,64 32,76 0,138 -98,0 -61,-106 -53,-119 13,-21 24,-19 53,-19zm-58 -21l87 0 0 -22 -69 11c-26,9 -9,3 -18,11zm15 14c-80,34 -43,191 45,155 70,-27 50,-196 -45,-155z"/>
   <path class="fil0" d="M1064 1194l-66 0 0 -58c57,0 100,-10 66,58zm-80 -58l0 137c-38,4 -13,-7 -22,15l58 0c-8,-23 16,-11 -22,-15l0 -65c58,0 40,-2 59,51 6,17 8,25 23,28 24,5 22,-7 27,-28 -12,-5 12,-3 -29,7l-17 -57c60,-31 42,-83 -11,-88 -23,-2 -63,0 -88,0 7,18 -15,14 22,15z"/>
   <path class="fil0" d="M3227 1549l0 -59c31,0 79,-10 79,30 0,39 -48,29 -79,29zm-15 -59l0 138c-37,4 -12,-7 -21,15l58 0c-8,-24 15,-11 -22,-15l0 -65 44 0c28,60 2,76 50,80l16 -29c-13,-7 0,-3 -12,-2l-10 3c-1,0 -3,1 -3,1l-23 -52 15 -10c4,-4 8,-6 12,-11 65,-83 -116,-67 -125,-67 7,18 -16,14 21,14z"/>
   <path class="fil0" d="M702 1549l0 -59c30,0 79,-10 79,30 0,39 -49,29 -79,29zm-15 -59l0 138c-38,4 -13,-7 -21,15l58 0c-9,-24 15,-11 -22,-15l0 -65 43 0c28,60 3,76 51,80l17 -29c-16,-8 -15,1 -27,2l-22 -52 27 -21c64,-83 -116,-67 -125,-67 6,18 -15,14 21,14z"/>
   <path class="fil0" d="M3225 385c16,2 16,-7 39,-15 24,-10 35,-5 57,-15 -16,69 -116,90 -116,181 38,17 85,-16 107,-35 -23,-15 -52,17 -92,20 28,-56 122,-113 123,-173 -35,-9 -125,-9 -118,37zm96 114l-2 -2c0,0 1,3 2,2z"/>
   <path class="fil0" d="M1918 1490l0 138c-39,4 -14,-7 -22,15l130 0 -14 -59 -7 44 -66 0 0 -65 29 0c1,44 -5,21 15,29l0 -72c-20,7 -14,-15 -15,29l-29 0 0 -59 65 0c11,21 8,15 8,44l14 -58 -130 0c6,18 -15,14 22,14z"/>
   <path class="fil0" d="M3379 1490l0 138c-37,4 -13,-7 -21,15l129 0 0 -59c-18,8 -5,-1 -14,15 -21,35 3,29 -80,29l0 -65 36 0c1,44 -4,21 15,29l0 -72c-19,7 -14,-15 -15,29l-36 0 0 -59c66,0 64,-6 77,19 1,4 1,7 3,11 0,0 1,3 2,4l3 8c15,-20 9,-6 9,-56l-129 0c5,18 -16,14 21,14z"/>
   <path class="fil0" d="M202 1490l0 138c-37,4 -12,-7 -21,15l130 0 -15 -59c0,30 3,24 -6,44l-65 0 0 -65 28 0c2,44 -4,21 15,29l0 -72c-19,7 -13,-15 -15,29l-28 0 0 -59 65 0c9,21 6,15 6,44l15 -58 -130 0c6,18 -15,14 21,14z"/>
   <path class="fil0" d="M2880 1288l130 0 0 -58c-47,19 29,43 -94,43l0 -65 36 0 -36 -14 0 -58c81,0 66,-4 81,33l4 9c15,-21 9,-29 9,-57l-130 0c12,32 15,-7 15,80 -2,105 -2,50 -15,87z"/>
   <path class="fil0" d="M3612 1489c-16,-15 -21,-15 -45,-14 -26,3 -21,0 -36,23 123,-30 64,26 109,44l0 -73c-26,11 -6,7 -28,20zm-95 9c4,61 14,40 80,72 20,9 41,18 24,45 -14,21 -45,13 -68,13 -8,-11 -10,-15 -17,-28 -16,-28 7,-12 -19,-23l0 73c16,-7 11,-15 27,-20 20,12 24,17 50,12 9,-2 18,-6 26,-12 2,-1 6,-5 8,-7 13,-9 5,-4 12,-9 0,-91 -46,-38 -112,-106l-11 -10z"/>
   <path class="fil0" d="M2634 1490l0 138c-38,4 -13,-7 -23,15l131 0 -87 -15 0 -65 29 0c1,44 -4,21 14,29l0 -72c-18,7 -13,-15 -14,29l-29 0 0 -59 73 0 14 44 0 -58 -131 0c7,18 -14,14 23,14z"/>
   <path class="fil0" d="M188 1136l0 137c-37,4 -13,-7 -21,15l129 0 -85 -15 0 -65 27 0c2,44 -4,22 15,30l0 -73c-19,7 -13,-15 -15,29l-27 0 0 -58 64 0c9,20 7,14 7,43l14 -58 -129 0c5,18 -16,14 21,15z"/>
   <path class="fil0" d="M428 1135c-35,-24 -68,-20 -96,14 12,98 102,17 102,117 -100,24 -77,-16 -101,-43l0 72c11,-7 4,-2 11,-9l9 -11c44,26 59,15 96,-9 0,-116 -83,-46 -102,-116 5,-4 7,-9 23,-13 12,-3 29,-2 40,1 35,12 9,28 39,49l0 -73c-9,7 -3,1 -11,11l-10 10z"/>
   <path class="fil0" d="M3597 1135c-34,-24 -69,-20 -96,14 10,72 52,37 102,81l0 36c-105,25 -63,-17 -101,-43l0 72 19 -20c44,26 60,15 96,-9 1,-119 -82,-44 -100,-116 61,-54 100,35 100,37l0 -73 -20 21z"/>
   <path class="fil0" d="M550 1490c48,0 64,14 65,66 2,49 -16,72 -65,72 -33,-64 -41,-75 0,-138zm-4 -7c-77,33 -39,195 49,154 69,-32 47,-196 -49,-154z"/>
   <path class="fil0" d="M3075 1490c49,0 64,14 66,66 1,49 -17,72 -66,72 -33,-64 -40,-75 0,-138zm-3 -7c-78,33 -40,195 48,154 69,-32 47,-196 -48,-154z"/>
   <path class="fil0" d="M1190 1171l27 59 -45 0 18 -59zm-61 117l50 0c-13,-34 22,34 -13,-16 -25,-36 40,-28 57,-28 10,42 4,12 -8,44l51 0c-8,-23 -9,-2 -35,-80 -9,-28 -18,-61 -30,-87 -23,18 -34,86 -49,125 -6,15 -1,5 -10,20 -12,21 -2,-8 -13,22z"/>
   <path class="fil0" d="M896 1520l25 64 -45 0 20 -64zm-64 123l51 0c-14,-36 21,34 -14,-17 -25,-35 40,-27 57,-27 18,38 4,15 -7,44l58 0c-25,-36 -12,15 -41,-75 -9,-28 -19,-66 -32,-92 -28,22 -34,102 -58,144 -13,21 -2,-7 -14,23z"/>
   <path class="fil0" d="M686 1166l25 64 -45 0 20 -64zm-64 122l50 0c-6,-18 -28,-21 -15,-36 13,-14 18,-8 59,-8 18,39 4,15 -7,44l59 0c-23,-31 -11,2 -25,-34 -5,-11 -11,-31 -15,-43 -5,-15 -10,-29 -15,-44 -2,-7 -4,-14 -7,-21 0,-2 -3,-9 -4,-11 -8,-19 0,-3 -7,-14 -23,26 -35,92 -48,126 -14,41 -13,10 -25,41z"/>
   <path class="fil0" d="M2467 1534l15 0c1,-40 1,-43 35,-44l-1 128c-6,19 -8,7 -20,25l65 0c-8,-24 16,-11 -21,-15l0 -138c68,0 12,1 50,44l0 -58 -123 0 0 58z"/>
   <path class="fil0" d="M803 1136l0 123c23,21 62,57 94,7 -27,6 -26,7 -58,7 -30,-47 -21,-46 -21,-137 37,-3 12,6 21,-15l-58 0c7,18 -15,14 22,15zm101 130c23,-32 15,-69 15,-130 38,-3 14,6 22,-15l-58 0c8,23 -16,11 21,15l-3 106c0,1 -5,10 3,24z"/>
   <path class="fil0" d="M2720 1136l0 123c23,21 63,57 95,7 -27,6 -27,7 -58,7 -32,-47 -22,-46 -22,-137 38,-3 13,6 22,-15l-59 0c7,18 -14,14 22,15zm102 130c11,-16 14,-17 14,-50 1,-23 0,-49 0,-72 1,-2 4,-5 4,-4l18 -19 -57 0c8,23 -17,11 21,15l-4 106c0,1 -5,10 4,24z"/>
   <path class="fil0" d="M478 1179c22,-15 15,-12 15,-43l35 0 0 137c-37,4 -12,-7 -21,15l65 0c-10,-14 -7,-6 -11,-11 -21,-26 -11,-106 -11,-141 35,1 35,3 36,43l15 -58 -123 0 0 58z"/>
   <path class="fil0" d="M1087 1489c-28,-25 -59,-15 -81,9 -57,60 4,190 86,129 20,-14 22,-16 15,-35l-29 36 -43 0c-17,-24 -23,-18 -28,-52 -7,-43 10,-105 68,-83 40,15 0,32 39,49l0 -73c-25,11 -5,7 -27,20z"/>
   <path class="fil0" d="M3220 1144l-1 115c-7,36 0,-8 -14,29l124 0 -10 -57c-15,18 -12,14 -13,42l-65 0 0 -137c38,-3 13,6 22,-15l-65 0 22 23z"/>
   <path class="fil0" d="M1816 449c-14,4 -105,115 -115,28 -5,-51 60,-144 12,-117 -17,11 -21,43 -25,62 -24,98 42,130 91,90 26,-21 34,-36 37,-63zm8 14l0 0z"/>
   <path class="fil0" d="M449 1490c-127,-64 -140,128 -63,150 42,13 68,-10 77,-48 -21,8 -19,19 -43,37 -64,19 -87,-127 -21,-138 40,-7 49,17 50,51l14 -73c-23,9 -9,-13 -14,21z"/>
   <path class="fil0" d="M1386 1136c-27,-15 -34,-22 -62,-8 -24,12 -33,25 -40,48 -5,24 -5,47 4,68 25,60 101,58 116,0 -1,0 -63,68 -92,5 -29,-62 8,-96 20,-113l43 0c21,31 12,32 29,51l0 -73 -18 22z"/>
   <path class="fil0" d="M1461 1136l0 137c-37,4 -12,-7 -21,15l65 0c-8,-23 15,-11 -22,-15l0 -137c38,-3 14,6 22,-15l-65 0c7,18 -15,14 21,15z"/>
   <path class="fil0" d="M2959 1490l0 138c-37,4 -13,-7 -22,15l66 0c-9,-24 16,-11 -22,-15l0 -138c38,-3 13,7 22,-14l-66 0c7,18 -14,14 22,14z"/>
   <path class="fil0" d="M1165 1621l-21 22 64 0c-8,-24 16,-11 -21,-15l0 -138c37,-3 13,7 21,-14l-58 0c12,32 5,-1 13,24l2 121z"/>
   <path class="fil0" d="M2235 1490l0 138c-37,4 -12,-7 -21,15l58 0c-8,-24 16,-11 -22,-15l0 -138c38,-3 13,7 22,-14l-58 0c7,18 -15,14 21,14z"/>
   <path class="fil2" d="M1968 869l15 -15 -116 -3c17,25 75,-6 101,18z"/>
   <path class="fil2" d="M1705 867l17 -7c13,0 31,2 45,2 32,-2 20,3 33,-14l-111 8 16 11z"/>
   <polygon class="fil0" points="2684,926 2713,926 2713,897 2684,897 "/>
   <polygon class="fil0" points="1194,926 1223,926 1223,897 1194,897 "/>
   <polygon class="fil0" points="1259,926 1288,926 1288,897 1259,897 "/>
   <polygon class="fil0" points="2482,926 2510,926 2510,897 2482,897 "/>
   <polygon class="fil0" points="1056,926 1085,926 1085,897 1056,897 "/>
   <polygon class="fil0" points="319,926 347,926 347,897 319,897 "/>
   <polygon class="fil0" points="384,926 413,926 413,897 384,897 "/>
   <polygon class="fil0" points="3154,926 3184,926 3184,897 3154,897 "/>
   <polygon class="fil0" points="521,926 550,926 550,897 521,897 "/>
   <polygon class="fil0" points="586,926 615,926 615,897 586,897 "/>
   <polygon class="fil0" points="2012,926 2040,926 2040,897 2012,897 "/>
   <polygon class="fil0" points="991,926 1020,926 1020,897 991,897 "/>
   <polygon class="fil0" points="3358,926 3386,926 3386,897 3358,897 "/>
   <polygon class="fil0" points="2749,926 2778,926 2778,897 2749,897 "/>
   <polygon class="fil0" points="3292,926 3321,926 3321,897 3292,897 "/>
   <polygon class="fil0" points="2141,926 2171,926 2171,897 2141,897 "/>
   <polygon class="fil0" points="2547,926 2576,926 2576,897 2547,897 "/>
   <polygon class="fil0" points="2077,926 2106,926 2106,897 2077,897 "/>
   <polygon class="fil0" points="3090,926 3118,926 3118,897 3090,897 "/>
   <polygon class="fil0" points="116,926 144,926 144,897 116,897 "/>
   <polygon class="fil0" points="1461,926 1490,926 1490,897 1461,897 "/>
   <polygon class="fil0" points="1396,926 1426,926 1426,897 1396,897 "/>
   <polygon class="fil0" points="854,926 883,926 883,897 854,897 "/>
   <polygon class="fil0" points="181,926 211,926 211,897 181,897 "/>
   <polygon class="fil0" points="724,926 753,926 753,897 724,897 "/>
   <polygon class="fil0" points="789,926 818,926 818,897 789,897 "/>
   <polygon class="fil0" points="2887,926 2916,926 2916,897 2887,897 "/>
   <polygon class="fil0" points="3494,926 3523,926 3523,897 3494,897 "/>
   <polygon class="fil0" points="3560,926 3588,926 3588,897 3560,897 "/>
   <polygon class="fil0" points="2952,926 2981,926 2981,897 2952,897 "/>
   <polygon class="fil0" points="2344,926 2373,926 2373,897 2344,897 "/>
   <polygon class="fil0" points="2279,926 2308,926 2308,897 2279,897 "/>
   <polygon class="fil0" points="1527,926 1555,926 1555,897 1527,897 "/>
   <path class="fil0" d="M2416 926l30 0c-3,-30 0,-26 -30,-29l0 29z"/>
   <path class="fil0" d="M926 926l30 0c-3,-30 0,-26 -30,-29l0 29z"/>
   <path class="fil0" d="M253 926l29 0c-2,-30 2,-26 -29,-29l0 29z"/>
   <path class="fil0" d="M2619 926l29 0c-2,-30 1,-26 -29,-29l0 29z"/>
   <path class="fil0" d="M3227 926l29 0c-3,-30 1,-26 -29,-29l0 29z"/>
   <path class="fil0" d="M3024 926l29 0c-2,-30 1,-26 -29,-29l0 29z"/>
   <path class="fil0" d="M3429 926l30 0c-3,-30 1,-26 -30,-29l0 29z"/>
   <path class="fil0" d="M50 926l30 0c-3,-30 1,-26 -30,-29l0 29z"/>
   <path class="fil0" d="M2214 926l29 0c-2,-30 1,-26 -29,-29l0 29z"/>
   <path class="fil0" d="M2822 926l29 0c-3,-30 1,-26 -29,-29l0 29z"/>
   <path class="fil0" d="M1324 926l29 0 0 -29c-26,3 -28,-1 -29,29z"/>
   <path class="fil0" d="M651 926l29 0 0 -29c-26,3 -27,-1 -29,29z"/>
   <path class="fil0" d="M449 926l29 0 0 -29c-27,3 -28,-1 -29,29z"/>
   <polygon class="fil0" points="1129,926 1150,926 1150,897 1129,897 "/>
   <path class="fil0" d="M3427 333l-5 22c26,-3 14,5 30,-14 -12,-11 -9,-13 -25,-8z"/>
   <path class="fil0" d="M2120 355c2,-4 21,4 -2,-27 0,0 -12,1 -11,13 2,23 -4,7 13,14z"/>
   <path class="fil0" d="M1404 362l2 -2c0,0 -3,2 -2,2zm-8 0c0,0 3,1 3,2l0 0c-1,0 -2,-2 -3,-2zm-7 7c-7,7 10,27 4,9 0,-1 6,-18 -4,-9zm7 21l3 -1c-1,0 -3,1 -3,1zm-14 -6c-1,1 2,1 2,1l0 0c0,0 -1,-2 -2,-1zm-7 6c-8,7 9,27 3,9 0,0 6,-17 -3,-9zm-8 15c-1,1 3,2 3,3l0 0c0,0 -2,-4 -3,-3zm-7 9c-7,6 11,19 4,6 0,0 9,-19 -4,-6z"/>
   <path class="fil0" d="M1498 246l2 -3c0,2 -3,2 -2,3zm-8 0c0,1 3,1 3,3l0 0c0,-1 -2,-4 -3,-3zm8 15l2 -3c0,1 -3,2 -2,3zm-15 -8c0,1 2,2 2,2l0 0c0,0 -1,-2 -2,-2zm-7 8c-1,0 2,0 2,1l-2 -1zm-7 7c-1,0 2,1 2,2l0 0c0,0 -1,-2 -2,-2zm-8 7c-6,7 11,27 4,9 0,-1 6,-18 -4,-9zm-6 15c-1,1 1,1 1,1l-1 -1zm-8 6c0,2 2,2 2,3l0 0c0,0 -1,-3 -2,-3zm-7 9c-1,0 2,0 2,1l0 0c0,0 -1,-3 -2,-1zm-8 6c-6,7 10,26 5,9 0,0 5,-17 -5,-9zm-6 15c-1,0 1,0 1,2l0 0c0,0 -1,-3 -1,-2zm-7 7c-1,0 1,1 1,2l0 0c0,0 -1,-3 -1,-2zm-8 7c-1,1 3,1 3,3l-3 -3z"/>
   <path class="fil0" d="M1738 311c0,1 20,19 11,-1 -3,-5 -14,-20 -11,1z"/>
   <polygon class="fil2" points="1772,926 1779,915 1760,906 "/>
   <path class="fil3" d="M1758 990l-6 12c13,0 8,2 6,-12z"/>
   <path class="fil3" d="M1917 993l-6 -11c-3,13 -6,11 6,11z"/>
   <path class="fil3" d="M1852 805l-6 -11c-3,13 -6,11 6,11z"/>
   <path class="fil3" d="M1816 816l-7 10c12,0 9,3 7,-10z"/>
   <path class="fil2" d="M1861 825c0,-15 5,-12 -7,-12l7 12z"/>
   <path class="fil3" d="M1845 782l-6 -11c-2,13 -5,11 6,11z"/>
   <path class="fil2" d="M1823 793c-12,0 -8,-2 -7,11l7 -11z"/>
   <path class="fil2" d="M1831 773l-6 11c11,0 6,2 6,-11z"/>
   <path class="fil2" d="M1792 983l19 -13c-23,9 -13,6 -19,13z"/>
   <path class="fil2" d="M1887 993l-8 -9c0,11 -2,9 8,9z"/>
   <path class="fil2" d="M1868 977c-6,-7 1,-5 -20,-13l20 13z"/>
   <polygon class="fil2" points="1909,967 1902,956 1902,967 "/>
   <path class="fil3" d="M1940 883c-11,0 -8,-3 -8,9l8 -9z"/>
   <path class="fil2" d="M1713 877l-7 -9c0,12 -3,9 7,9z"/>
   <path class="fil2" d="M1919 897l-8 9c11,0 8,2 8,-9z"/>
   <path class="fil2" d="M1781 991l-8 9c10,-1 8,2 8,-9z"/>
   <path class="fil2" d="M1952 874c-10,0 -8,-3 -8,8l8 -8z"/>
   <path class="fil2" d="M1760 904c0,-10 2,-8 -8,-8l8 8z"/>
   <path class="fil2" d="M1829 954c-11,0 -7,-3 -7,8l7 -8z"/>
   <polygon class="fil3" points="1911,969 1909,967 1902,967 "/>
   <path class="fil0" d="M1534 211l2 -3c0,0 -3,1 -2,3zm-7 0c-1,0 2,0 2,1l-2 -1z"/>
   <path class="fil0" d="M1513 232l1 -2c0,0 -2,1 -1,2z"/>
   <path class="fil0" d="M1389 405l2 -2c0,0 -2,1 -2,2z"/>
   <path class="fil0" d="M1824 449l1 -2c0,0 -2,1 -1,2z"/>
   <path class="fil2" d="M1919 1004c-16,1 -5,5 -22,-3l25 6c1,-2 -2,-2 -3,-3z"/>
   <polygon class="fil2" points="1765,962 1760,975 "/>
   <polygon class="fil2" points="1867,847 1861,836 "/>
   <polygon class="fil2" points="1901,945 1896,933 "/>
   <polygon class="fil2" points="1772,938 1767,950 "/>
   <polygon class="fil2" points="1737,890 1729,882 "/>
  </g>
 </g>
</svg>
