<?xml version="1.0" encoding="UTF-8"?>
<!DOCTYPE svg PUBLIC "-//W3C//DTD SVG 1.1//EN" "http://www.w3.org/Graphics/SVG/1.1/DTD/svg11.dtd">
<!-- Creator: CorelDRAW X7 -->
<svg xmlns="http://www.w3.org/2000/svg" xml:space="preserve" width="1.57128cm" height="1.17804cm" version="1.1" style="shape-rendering:geometricPrecision; text-rendering:geometricPrecision; image-rendering:optimizeQuality; fill-rule:evenodd; clip-rule:evenodd"
viewBox="0 0 1571 1178"
 xmlns:xlink="http://www.w3.org/1999/xlink">
 <defs>
  <style type="text/css">
   <![CDATA[
    .fil0 {fill:#9AD2AF}
   ]]>
  </style>
 </defs>
 <g id="Layer_x0020_1">
  <metadata id="CorelCorpID_0Corel-Layer"/>
  <path class="fil0" d="M268 492c7,-81 2,-127 34,-127l965 8 9 110 -796 0c-82,0 -131,9 -212,9zm26 -263l965 0 0 51c0,29 6,33 8,59l-982 0c0,-51 9,-61 9,-110zm-119 906l-51 0 0 -897 127 0c0,148 -53,598 -67,779 -3,42 -9,85 -9,118zm1118 -906l135 0 0 915 -59 0c0,-156 -26,-305 -34,-457l-42 -458zm-1253 -110c0,-42 34,-76 76,-76l1338 0c103,0 110,161 -17,161l-1304 0c-58,0 -93,-27 -93,-85zm-34 -17c0,151 76,88 76,144l0 915 127 0c14,-60 21,-236 32,-316l27 -328 1016 0c0,156 51,507 51,660 92,0 136,13 136,-25l0 -923c38,-1 50,-9 70,-31 72,-81 1,-180 -62,-180l-1388 0c-43,0 -85,42 -85,84z"/>
 </g>
</svg>
