<?xml version="1.0" encoding="UTF-8"?>
<!DOCTYPE svg PUBLIC "-//W3C//DTD SVG 1.1//EN" "http://www.w3.org/Graphics/SVG/1.1/DTD/svg11.dtd">
<!-- Creator: CorelDRAW X7 -->
<svg xmlns="http://www.w3.org/2000/svg" xml:space="preserve" width="1.57128cm" height="0.44cm" version="1.1" style="shape-rendering:geometricPrecision; text-rendering:geometricPrecision; image-rendering:optimizeQuality; fill-rule:evenodd; clip-rule:evenodd"
viewBox="0 0 1571 440"
 xmlns:xlink="http://www.w3.org/1999/xlink">
 <defs>
  <style type="text/css">
   <![CDATA[
    .fil0 {fill:#9AD2AF}
   ]]>
  </style>
 </defs>
 <g id="Layer_x0020_1">
  <metadata id="CorelCorpID_0Corel-Layer"/>
  <path class="fil0" d="M1475 365l80 0 0 61 -61 0c-3,-11 -6,-21 -9,-31 -3,-9 -6,-24 -10,-30zm-1392 61l-62 0 0 -65 80 0c-4,8 -18,55 -18,65zm1067 -403l402 0 0 326 -402 0 0 -326zm-708 262l692 0 0 64 -692 0 0 -64zm-418 -262l403 0 0 326 -403 0 0 -326zm418 179l692 0 0 73 -692 0 0 -73zm354 -179l338 0 0 169 -338 0 0 -169zm-354 0l339 0c0,56 3,101 3,157l0 12 -342 0 0 -169zm-433 412c103,0 80,8 93,-32 4,-14 10,-27 11,-42l1347 0c12,25 16,77 31,77l77 0 0 -424 -1559 0 0 421z"/>
 </g>
</svg>
