<?xml version="1.0" encoding="UTF-8"?>
<!DOCTYPE svg PUBLIC "-//W3C//DTD SVG 1.1//EN" "http://www.w3.org/Graphics/SVG/1.1/DTD/svg11.dtd">
<!-- Creator: CorelDRAW X7 -->
<svg xmlns="http://www.w3.org/2000/svg" xml:space="preserve" width="4.92772cm" height="1.79584cm" version="1.1" style="shape-rendering:geometricPrecision; text-rendering:geometricPrecision; image-rendering:optimizeQuality; fill-rule:evenodd; clip-rule:evenodd"
viewBox="0 0 4928 1796"
 xmlns:xlink="http://www.w3.org/1999/xlink">
 <defs>
  <style type="text/css">
   <![CDATA[
    .fil0 {fill:#9AD2AF}
   ]]>
  </style>
 </defs>
 <g id="Layer_x0020_1">
  <metadata id="CorelCorpID_0Corel-Layer"/>
  <path class="fil0" d="M4779 1225c80,0 51,124 51,237 0,90 0,180 0,271l-8 0c0,-79 -23,-185 -35,-261l-32 -200c-3,-28 -4,-47 24,-47zm-4699 465l-8 -364c-1,-92 -14,-101 51,-101 36,0 19,30 10,94 -14,93 -53,304 -53,371zm-8 -533l4775 0 0 34 -4775 0 0 -34zm0 -68l4767 0 0 34 -4767 0 0 -34zm3276 -406l1499 0 0 372 -1499 0 0 -372zm-1718 0l1676 0 0 372 -1676 0 0 -372zm-1558 0l1515 0 0 372 -1515 0 0 -372zm3276 -474l1499 0 0 440 -1499 0 0 -440zm-1718 0l1676 0 0 440 -1676 0 0 -440zm-1558 0l1515 0 0 440 -1515 0 0 -440zm0 -136l4775 0 0 102 -4775 0 0 -102zm-42 1118l0 525c0,36 16,59 50,59 37,0 30,-60 40,-121 13,-78 62,-370 62,-429l4530 0 71 479c12,86 12,100 81,54l-1 -492c-2,-37 -17,-38 18,-41l0 -1186 -4851 0 0 1152z"/>
 </g>
</svg>
