<?xml version="1.0" encoding="UTF-8"?>
<!DOCTYPE svg PUBLIC "-//W3C//DTD SVG 1.1//EN" "http://www.w3.org/Graphics/SVG/1.1/DTD/svg11.dtd">
<!-- Creator: CorelDRAW X7 -->
<svg xmlns="http://www.w3.org/2000/svg" xml:space="preserve" width="21cm" height="29.7cm" version="1.1" style="shape-rendering:geometricPrecision; text-rendering:geometricPrecision; image-rendering:optimizeQuality; fill-rule:evenodd; clip-rule:evenodd"
viewBox="0 0 21000 29700"
 xmlns:xlink="http://www.w3.org/1999/xlink">
 <defs>
  <style type="text/css">
   <![CDATA[
    .fil0 {fill:#9AD2AF}
   ]]>
  </style>
 </defs>
 <g id="Layer_x0020_1">
  <metadata id="CorelCorpID_0Corel-Layer"/>
  <path class="fil0" d="M-43056 15552l101 0 0 948 -101 0 0 -948zm-1050 -17l93 0 0 957 -93 0 0 -957zm-144 -93l1372 0 0 67 -1372 0 0 -67zm-203 -68c0,-45 24,-51 68,-51l1625 0c103,0 72,85 34,85l-1693 0c-20,0 -34,-14 -34,-34zm68 68l101 0 0 93 136 0 0 982 177 0 0 -982 881 0 0 999 169 0 0 -974c0,-33 22,-25 77,-25l0 -93c80,0 194,17 194,-77 0,-40 -27,-67 -67,-67l-1719 0c-37,0 -61,54 -54,87 11,48 50,57 105,57z"/>
  <path class="fil0" d="M-45029 15611l550 -8c0,81 20,169 26,245 -199,0 -376,9 -567,9l-9 -246zm-85 -694c167,44 94,499 94,609 -13,-20 -17,-43 -18,-67l-17 -246c-5,-79 -32,-240 -59,-296zm34 669l-8 558c0,72 -9,112 -9,187 1,122 -33,136 17,169 31,-21 28,-38 37,-82 28,-155 23,-374 23,-536l567 0c15,65 44,359 70,489 14,72 17,125 65,129 10,-41 -18,-166 -27,-218l-73 -452c-9,-73 -12,-172 -27,-236l77 0 0 -25 -627 10c8,-19 24,-165 25,-197l0 -202c-2,-75 -7,-134 -31,-190 -24,-58 -53,-92 -117,-111 -122,-36 -17,10 13,283 15,135 25,274 25,424z"/>
  <path class="fil0" d="M-42006 15755l0 93 -568 0c7,-80 26,-166 26,-254l415 8c57,0 77,9 135,9 0,59 -8,83 -8,144zm0 -229c0,-149 -76,-529 93,-618 -12,50 -22,51 -36,142 -21,128 -38,272 -40,400 0,27 -3,54 -17,76zm-51 -381c0,140 -6,300 25,432 -115,0 -200,-8 -313,-8 -116,0 -203,-9 -313,-9l0 34 76 0c-15,65 -33,307 -48,400l-84 476c3,34 34,34 49,-10 28,-79 83,-490 91,-587 199,0 369,9 568,9 0,145 -3,279 9,423 2,27 9,89 14,113 13,74 15,73 53,74 17,-36 -9,-287 -9,-356 2,-348 -41,-820 48,-1146 27,-98 83,-145 -21,-115 -103,30 -145,150 -145,270z"/>
  <path class="fil0" d="M-43056 15552l101 0 0 948 -101 0 0 -948zm-1050 -17l93 0 0 957 -93 0 0 -957zm-144 -93l1372 0 0 67 -1372 0 0 -67zm-203 -68c0,-45 24,-51 68,-51l1625 0c103,0 72,85 34,85l-1693 0c-20,0 -34,-14 -34,-34zm68 68l101 0 0 93 136 0 0 982 177 0 0 -982 881 0 0 999 169 0 0 -974c0,-33 22,-25 77,-25l0 -93c80,0 194,17 194,-77 0,-40 -27,-67 -67,-67l-1719 0c-37,0 -61,54 -54,87 11,48 50,57 105,57z"/>
  <path class="fil0" d="M-45029 15611l550 -8c0,81 20,169 26,245 -199,0 -376,9 -567,9l-9 -246zm-85 -694c167,44 94,499 94,609 -13,-20 -17,-43 -18,-67l-17 -246c-5,-79 -32,-240 -59,-296zm34 669l-8 558c0,72 -9,112 -9,187 1,122 -33,136 17,169 31,-21 28,-38 37,-82 28,-155 23,-374 23,-536l567 0c15,65 44,359 70,489 14,72 17,125 65,129 10,-41 -18,-166 -27,-218l-73 -452c-9,-73 -12,-172 -27,-236l77 0 0 -25 -627 10c8,-19 24,-165 25,-197l0 -202c-2,-75 -7,-134 -31,-190 -24,-58 -53,-92 -117,-111 -122,-36 -17,10 13,283 15,135 25,274 25,424z"/>
  <path class="fil0" d="M-42006 15755l0 93 -568 0c7,-80 26,-166 26,-254l415 8c57,0 77,9 135,9 0,59 -8,83 -8,144zm0 -229c0,-149 -76,-529 93,-618 -12,50 -22,51 -36,142 -21,128 -38,272 -40,400 0,27 -3,54 -17,76zm-51 -381c0,140 -6,300 25,432 -115,0 -200,-8 -313,-8 -116,0 -203,-9 -313,-9l0 34 76 0c-15,65 -33,307 -48,400l-84 476c3,34 34,34 49,-10 28,-79 83,-490 91,-587 199,0 369,9 568,9 0,145 -3,279 9,423 2,27 9,89 14,113 13,74 15,73 53,74 17,-36 -9,-287 -9,-356 2,-348 -41,-820 48,-1146 27,-98 83,-145 -21,-115 -103,30 -145,150 -145,270z"/>
  <path class="fil0" d="M2136 713l102 0 0 948 -102 0 0 -948zm-1050 -17l93 0 0 957 -93 0 0 -957zm-144 -93l1372 0 0 68 -1372 0 0 -68zm-203 -68c0,-44 25,-50 68,-50l1626 0c102,0 71,84 33,84l-1693 0c-20,0 -34,-14 -34,-34zm68 68l102 0 0 93 135 0 0 982 178 0 0 -982 880 0 0 999 170 0 0 -973c0,-33 21,-26 76,-26l0 -93c80,0 195,17 195,-76 0,-41 -27,-68 -68,-68l-1719 0c-36,0 -61,55 -54,87 11,49 50,57 105,57z"/>
  <path class="fil0" d="M163 772l551 -8c0,82 19,170 25,246 -198,0 -376,8 -567,8l-9 -246zm-84 -694c166,45 93,499 93,610 -13,-21 -16,-43 -17,-68l-17 -245c-5,-80 -32,-241 -59,-297zm34 669l-9 559c1,72 -9,111 -8,186 1,123 -33,136 17,169 30,-20 28,-37 36,-82 28,-154 23,-373 23,-536l567 0c15,66 44,359 70,489 14,72 17,125 66,129 9,-40 -19,-166 -28,-217l-72 -453c-10,-73 -12,-171 -27,-235l76 0 0 -26 -627 11c9,-20 24,-166 26,-197l0 -203c-2,-75 -8,-133 -31,-189 -25,-58 -53,-93 -118,-112 -122,-36 -17,11 13,284 15,134 26,274 26,423z"/>
  <path class="fil0" d="M3186 916l0 94 -567 0c6,-81 25,-167 25,-254l415 8c58,0 78,8 136,8 0,60 -9,83 -9,144zm0 -228c0,-149 -75,-529 93,-618 -11,49 -21,50 -36,141 -21,129 -38,272 -40,401 0,26 -3,53 -17,76zm-51 -381c0,139 -5,299 26,432 -116,0 -200,-9 -314,-9 -115,0 -202,-8 -313,-8l0 34 76 0c-15,64 -33,307 -48,400l-84 475c3,34 34,35 50,-10 27,-79 83,-490 91,-586 198,0 368,8 567,8 0,146 -2,279 9,423 2,28 10,90 14,113 14,75 15,73 53,74 17,-35 -9,-287 -8,-356 2,-348 -42,-819 47,-1146 27,-98 84,-144 -20,-114 -103,30 -146,149 -146,270z"/>
 </g>
</svg>
