<?xml version="1.0" encoding="UTF-8"?>
<!DOCTYPE svg PUBLIC "-//W3C//DTD SVG 1.1//EN" "http://www.w3.org/Graphics/SVG/1.1/DTD/svg11.dtd">
<!-- Creator: CorelDRAW X7 -->
<svg xmlns="http://www.w3.org/2000/svg" xml:space="preserve" width="1.72128cm" height="2.57804cm" version="1.1" style="shape-rendering:geometricPrecision; text-rendering:geometricPrecision; image-rendering:optimizeQuality; fill-rule:evenodd; clip-rule:evenodd"
viewBox="0 0 1721 2578"
 xmlns:xlink="http://www.w3.org/1999/xlink">
 <defs>
  <style type="text/css">
   <![CDATA[
    .fil1 {fill:#C0E2CD}
    .fil0 {fill:#9AD2AF}
   ]]>
  </style>
 </defs>
 <g id="Layer_x0020_1">
  <metadata id="CorelCorpID_0Corel-Layer"/>
  <g id="_2052371903696">
   <path class="fil0" d="M4524 -2761l160 0 0 178 -118 0c-1,-29 -33,-158 -42,-178zm-1008 178l-119 0 0 -178 161 0c-9,20 -40,150 -42,178zm533 -652l695 0 0 440 -703 0c0,-156 8,-283 8,-440zm-50 440l-678 0 0 -448 686 8c0,65 8,403 -8,440zm67 -2108l678 0 0 1643 -695 -9c0,-543 17,-1096 17,-1634zm-59 1634l-686 0 0 -1634 703 0c0,281 -8,539 -8,813 0,284 -9,542 -9,821zm-720 -1803l1482 0c88,0 78,127 17,127l-1516 0c-60,0 -70,-127 17,-127zm-101 59c0,60 25,96 93,102l0 2150 76 0 0 203 195 0c6,-68 41,-139 42,-203l898 0c5,69 41,140 42,203l195 0 0 -203 59 0 0 -2150c130,-31 112,-195 -42,-195l-1431 0c-69,0 -127,27 -127,93z"/>
   <path class="fil0" d="M3889 -4183l0 228c0,37 32,26 110,26l0 -280c-78,0 -110,-10 -110,26z"/>
   <polygon class="fil1" points="4236,-2998 4515,-2998 4515,-3099 4236,-3099 "/>
   <polygon class="fil1" points="4075,-3929 4176,-3929 4176,-4200 4075,-4200 "/>
   <polygon class="fil1" points="3524,-3006 3812,-3006 3812,-3099 3524,-3099 "/>
  </g>
  <g id="_2052371894960">
   <path class="fil0" d="M4524 -2761l160 0 0 178 -118 0c-1,-29 -33,-158 -42,-178zm-1008 178l-119 0 0 -178 161 0c-9,20 -40,150 -42,178zm533 -652l695 0 0 440 -703 0c0,-156 8,-283 8,-440zm-50 440l-678 0 0 -448 686 8c0,65 8,403 -8,440zm67 -2108l678 0 0 1643 -695 -9c0,-543 17,-1096 17,-1634zm-59 1634l-686 0 0 -1634 703 0c0,281 -8,539 -8,813 0,284 -9,542 -9,821zm-720 -1803l1482 0c88,0 78,127 17,127l-1516 0c-60,0 -70,-127 17,-127zm-101 59c0,60 25,96 93,102l0 2150 76 0 0 203 195 0c6,-68 41,-139 42,-203l898 0c5,69 41,140 42,203l195 0 0 -203 59 0 0 -2150c130,-31 112,-195 -42,-195l-1431 0c-69,0 -127,27 -127,93z"/>
   <path class="fil0" d="M3889 -4183l0 228c0,37 32,26 110,26l0 -280c-78,0 -110,-10 -110,26z"/>
   <polygon class="fil1" points="4236,-2998 4515,-2998 4515,-3099 4236,-3099 "/>
   <polygon class="fil1" points="4075,-3929 4176,-3929 4176,-4200 4075,-4200 "/>
   <polygon class="fil1" points="3524,-3006 3812,-3006 3812,-3099 3524,-3099 "/>
  </g>
  <g id="_2052371890960">
   <path class="fil0" d="M1344 2369l161 0 0 177 -119 0c0,-28 -33,-158 -42,-177zm-1008 177l-118 0 0 -177 161 0c-10,19 -40,149 -43,177zm534 -652l694 0 0 441 -703 0c0,-156 9,-283 9,-441zm-51 441l-677 0 0 -449 685 8c0,65 9,403 -8,441zm68 -2109l677 0 0 1643 -694 -8c0,-544 17,-1097 17,-1635zm-60 1635l-685 0 0 -1635 702 0c0,281 -8,539 -8,813 0,284 -9,542 -9,822zm-719 -1804l1481 0c88,0 78,127 17,127l-1515 0c-61,0 -71,-127 17,-127zm-102 59c0,61 26,96 93,102l0 2151 76 0 0 203 195 0c6,-69 41,-140 43,-203l897 0c6,68 41,139 42,203l195 0 0 -203 59 0 0 -2151c130,-30 113,-195 -42,-195l-1431 0c-68,0 -127,27 -127,93z"/>
   <path class="fil0" d="M709 946l0 229c0,36 32,25 110,25l0 -279c-78,0 -110,-11 -110,25z"/>
   <polygon class="fil1" points="1056,2131 1335,2131 1335,2030 1056,2030 "/>
   <polygon class="fil1" points="895,1200 997,1200 997,929 895,929 "/>
   <polygon class="fil1" points="345,2123 633,2123 633,2030 345,2030 "/>
  </g>
 </g>
</svg>
