<?xml version="1.0" encoding="UTF-8"?>
<!DOCTYPE svg PUBLIC "-//W3C//DTD SVG 1.1//EN" "http://www.w3.org/Graphics/SVG/1.1/DTD/svg11.dtd">
<!-- Creator: CorelDRAW X7 -->
<svg xmlns="http://www.w3.org/2000/svg" xml:space="preserve" width="1.15cm" height="2.1cm" version="1.1" style="shape-rendering:geometricPrecision; text-rendering:geometricPrecision; image-rendering:optimizeQuality; fill-rule:evenodd; clip-rule:evenodd"
viewBox="0 0 1150 2100"
 xmlns:xlink="http://www.w3.org/1999/xlink">
 <defs>
  <style type="text/css">
   <![CDATA[
    .fil0 {fill:#9AD2AF}
   ]]>
  </style>
 </defs>
 <g id="Layer_x0020_1">
  <metadata id="CorelCorpID_0Corel-Layer"/>
  <path class="fil0" d="M373 1780l0 -43 338 -11c66,-1 79,-13 84,43 -153,0 -278,11 -422,11zm32 -496l358 0c0,73 17,348 32,411l-422 0c11,-130 32,-269 32,-411zm401 0l73 0 0 728c-33,-38 -19,-69 -30,-171l-43 -557zm-517 728l0 -728 74 0c-1,46 -8,37 -11,85l-34 471c-12,88 4,134 -29,172zm-190 -823l11 -63 886 0c100,-2 94,-11 94,84 0,52 -119,32 -221,32l-759 0c-6,-24 -11,-24 -11,-53zm728 -200c0,53 1,55 10,95l-74 0c0,-85 3,-55 64,-95zm-359 53c30,7 92,21 127,21 48,0 87,-12 126,-21l0 42 -253 0 0 -42zm-116 -64c23,16 64,31 64,64l0 42 -64 0 0 -106zm253 43c-190,0 -348,-160 -379,-296 76,87 92,264 400,264 190,0 268,-144 331,-250 13,-21 5,-10 17,-24 -36,155 -205,306 -369,306zm-390 -317c0,-27 17,-1 6,0 0,0 -6,30 -6,0zm759 -10c-3,-20 14,-38 7,-7 0,1 0,43 -7,7zm-769 -21c-4,-20 13,-38 6,-7 0,1 1,43 -6,7zm780 -21c-4,-20 13,-38 7,-7 -1,1 0,43 -7,7zm-780 -64l0 42c-13,-19 -12,24 -9,-21 2,-23 0,-9 9,-21zm790 -116l11 0 0 127 -11 0 0 -127zm-390 485c-202,0 -358,-196 -358,-400 0,-138 19,-200 94,-306 182,-258 612,-109 612,285 0,111 -47,217 -96,283 -44,59 -154,138 -252,138zm-400 -516l0 42c-13,-20 -12,23 -9,-21 2,-23 0,-9 9,-21zm780 -11c-4,-20 13,-37 7,-7 -1,1 0,44 -7,7zm-780 -21c-4,-20 13,-37 6,-7 0,1 1,44 -6,7zm390 -327c-160,0 -295,108 -351,240l-29 55c19,-81 80,-175 135,-224 310,-272 620,62 635,245l-53 -115c-63,-109 -185,-201 -337,-201zm-454 443c0,93 19,168 47,238 91,228 112,36 112,321 -183,0 -283,-39 -232,179 59,28 94,21 168,21l0 738c0,43 33,32 116,32 0,-94 11,-147 11,-243l443 0c0,96 10,149 10,243 83,0 116,11 116,-32l0 -738c221,0 200,3 200,-148 0,-74 -163,-52 -253,-52 0,-128 -33,-96 18,-151 197,-211 200,-575 33,-753 -127,-136 -194,-161 -367,-161 -237,0 -422,269 -422,506z"/>
 </g>
</svg>
