<?xml version="1.0" encoding="UTF-8"?>
<!DOCTYPE svg PUBLIC "-//W3C//DTD SVG 1.1//EN" "http://www.w3.org/Graphics/SVG/1.1/DTD/svg11.dtd">
<!-- Creator: CorelDRAW X7 -->
<svg xmlns="http://www.w3.org/2000/svg" xml:space="preserve" width="0.85cm" height="1.55cm" version="1.1" style="shape-rendering:geometricPrecision; text-rendering:geometricPrecision; image-rendering:optimizeQuality; fill-rule:evenodd; clip-rule:evenodd"
viewBox="0 0 850 1550"
 xmlns:xlink="http://www.w3.org/1999/xlink">
 <defs>
  <style type="text/css">
   <![CDATA[
    .fil0 {fill:#9AD2AF}
   ]]>
  </style>
 </defs>
 <g id="Layer_x0020_1">
  <metadata id="CorelCorpID_0Corel-Layer"/>
  <path class="fil0" d="M728 1503l-34 0 0 -568 42 0 0 373c0,77 -8,119 -8,195zm-508 -271l431 0 0 8 -431 0 0 -8zm-9 -305l449 0 0 271 -449 0 0 -271zm-42 262l0 322 -34 0 0 -567 42 0c0,92 -8,152 -8,245zm-43 -355l618 0 0 68 -618 0 0 -68zm381 -686l9 0 0 652 -9 0 0 -652zm-93 0l60 0 0 652 -60 0 0 -652zm237 601c-3,-16 11,-30 6,-5 0,0 0,35 -6,5zm-431 -68c-4,-16 10,-30 5,-5 0,1 0,35 -5,5zm440 -67c-3,-16 10,-30 5,-6 0,1 0,35 -5,6zm-449 -68c-3,-16 11,-30 5,-5 0,0 1,35 -5,5zm466 -93l0 34c-10,-16 -10,19 -7,-17 1,-19 0,-7 7,-17zm-474 -43c-3,-16 10,-30 5,-5 0,1 0,35 -5,5zm474 -76c-3,-16 10,-30 5,-5 0,1 0,35 -5,5zm-474 -84l0 33c-10,-15 -10,19 -7,-16 1,-19 -1,-8 7,-17zm389 550l-42 0 0 -652 101 0c0,133 -35,486 -33,585 1,36 8,67 -26,67zm93 -601c-3,-16 11,-30 6,-6 -1,1 0,35 -6,6zm-457 -51l110 0 0 652 -68 0 -42 -652zm-102 -59c0,-23 4,-24 9,-43l516 0c82,0 110,-19 110,68l-635 0 0 -25zm-17 -68c-32,61 -29,74 -16,127l59 0c0,64 7,95 8,161l34 491c-160,0 -101,-29 -101,254l0 483 110 0 0 -144c0,-57 8,-74 8,-127l449 0 0 271 110 0 8 -737 -84 0c0,-131 14,-272 25,-398l9 -254 67 0c4,-44 28,-34 -25,-135 -224,0 -431,8 -661,8z"/>
 </g>
</svg>
