<?xml version="1.0" encoding="UTF-8"?>
<!DOCTYPE svg PUBLIC "-//W3C//DTD SVG 1.1//EN" "http://www.w3.org/Graphics/SVG/1.1/DTD/svg11.dtd">
<!-- Creator: CorelDRAW X7 -->
<svg xmlns="http://www.w3.org/2000/svg" xml:space="preserve" width="0.7713cm" height="1.54cm" version="1.1" style="shape-rendering:geometricPrecision; text-rendering:geometricPrecision; image-rendering:optimizeQuality; fill-rule:evenodd; clip-rule:evenodd"
viewBox="0 0 771 1540"
 xmlns:xlink="http://www.w3.org/1999/xlink">
 <defs>
  <style type="text/css">
   <![CDATA[
    .fil0 {fill:#9AD2AF}
   ]]>
  </style>
 </defs>
 <g id="Layer_x0020_1">
  <metadata id="CorelCorpID_0Corel-Layer"/>
  <path class="fil0" d="M138 983l499 0 0 17 -499 0 0 -17zm8 -144l0 -59 474 0 9 169 -491 0c0,-48 8,-58 8,-110zm516 -59l17 0c0,177 34,501 34,686l-38 -512c-9,-61 -13,-107 -13,-174zm-609 686c3,-32 8,-34 9,-76 2,-218 25,-404 25,-610l25 0c0,42 -8,42 -9,84l-8 179c-2,37 -8,40 -9,84l-16 263c0,45 9,57 -17,76zm-9 -762c16,-10 15,-17 34,-17 121,0 558,-12 644,8 0,64 9,51 -127,51l-542 0c-5,-22 -5,-16 -9,-42zm542 -43l-398 0c-7,-33 -17,-95 -17,-135l432 0c-8,34 -17,95 -17,135zm-415 -177l432 0 0 8 -432 0 0 -8zm441 -34l-449 0c-5,-19 -9,-20 -9,-43l0 -33 466 0c-3,32 -8,33 -8,76zm-466 -119l474 0 0 9 -474 0 0 -9zm-68 -118l17 0c0,81 51,374 51,448l-17 0c-2,-91 -51,-338 -51,-448zm549 84l-481 0c-4,-19 -8,-19 -8,-42l0 -42 499 0 -10 84zm19 364c-31,-2 -28,28 -12,-95l29 -243c2,-29 4,-34 7,-61 4,-44 -11,-39 26,-49 -10,119 -50,336 -50,448zm-602 -626l669 0c0,47 -8,106 -17,144l-635 0c-1,-49 -17,-89 -17,-144zm43 626c-102,0 -95,94 -34,111 0,64 -8,106 -8,178l-18 262c-1,30 2,63 1,93l-9 186 85 0c0,-156 25,-302 25,-465l508 0 26 414c2,27 7,30 8,60l85 0 -16 -264c-4,-32 -1,-68 -1,-101 -1,-43 -7,-46 -9,-84 -1,-30 1,-63 0,-93l-8 -186c53,-15 81,-111 -43,-111 12,-134 77,-556 77,-651l-754 0c0,92 34,204 48,315l37 336z"/>
 </g>
</svg>
