<?xml version="1.0" encoding="UTF-8"?>
<!DOCTYPE svg PUBLIC "-//W3C//DTD SVG 1.1//EN" "http://www.w3.org/Graphics/SVG/1.1/DTD/svg11.dtd">
<!-- Creator: CorelDRAW X7 -->
<svg xmlns="http://www.w3.org/2000/svg" xml:space="preserve" width="1.75cm" height="2.3cm" version="1.1" style="shape-rendering:geometricPrecision; text-rendering:geometricPrecision; image-rendering:optimizeQuality; fill-rule:evenodd; clip-rule:evenodd"
viewBox="0 0 1750 2300"
 xmlns:xlink="http://www.w3.org/1999/xlink">
 <defs>
  <style type="text/css">
   <![CDATA[
    .fil0 {fill:#9AD2AF}
   ]]>
  </style>
 </defs>
 <g id="Layer_x0020_1">
  <metadata id="CorelCorpID_0Corel-Layer"/>
  <path class="fil0" d="M1458 2037l127 0 0 144 -93 0c-1,-18 -28,-131 -34,-144zm-1185 144l-93 0 0 -144 127 0c-11,49 -23,97 -34,144zm-212 -245l0 -288 796 0 0 339 -728 0c-31,0 -68,-24 -68,-51zm1567 51l-728 0 0 -339 795 0 0 271c0,41 -26,68 -67,68zm-1567 -644c0,-70 74,-60 119,-59 68,1 101,-9 169,-9 56,84 74,111 187,161 224,101 709,79 841,-106 46,-64 0,-46 251,-46 41,0 67,27 67,68l0 270 -1634 0 0 -279zm314 -135l8 -94 974 0c48,0 143,313 -467,356 -134,9 -515,-62 -515,-262zm525 -119l0 -144 110 0 0 -93 -43 0 0 59 -67 0c0,-97 24,-254 -119,-254 -70,0 -119,47 -119,119l34 0c33,-140 161,-84 161,-17l0 330c-240,-5 -440,-248 -440,-474l0 -68c0,-391 441,-634 718,-387 11,10 21,17 32,27 236,220 199,676 -90,843 -64,37 -97,40 -177,59zm-525 -508c0,205 112,397 285,485 2,2 14,8 17,9 17,10 8,4 19,14l-355 0c0,52 -9,62 -9,110 0,32 6,16 9,51 -66,0 -148,-4 -212,0 -68,5 -110,37 -110,110l0 550c0,104 74,102 127,102l0 195 161 0 42 -195 1067 0c6,67 37,133 42,195l170 0 0 -195c48,0 101,-11 101,-76l0 -601c0,-113 -190,-85 -305,-85l-8 -161 -363 -7c12,-8 5,-4 16,-10 12,-7 20,-11 32,-18 30,-18 34,-22 60,-42 38,-30 66,-62 94,-101 193,-265 106,-688 -172,-827 -367,-183 -708,120 -708,497z"/>
 </g>
</svg>
