<?xml version="1.0" encoding="UTF-8"?>
<!DOCTYPE svg PUBLIC "-//W3C//DTD SVG 1.1//EN" "http://www.w3.org/Graphics/SVG/1.1/DTD/svg11.dtd">
<!-- Creator: CorelDRAW X7 -->
<svg xmlns="http://www.w3.org/2000/svg" xml:space="preserve" width="21cm" height="29.7cm" version="1.1" style="shape-rendering:geometricPrecision; text-rendering:geometricPrecision; image-rendering:optimizeQuality; fill-rule:evenodd; clip-rule:evenodd"
viewBox="0 0 21000 29700"
 xmlns:xlink="http://www.w3.org/1999/xlink">
 <defs>
  <style type="text/css">
   <![CDATA[
    .str0 {stroke:#9AD2AF;stroke-width:7.62}
    .fil1 {fill:#FEFEFE}
    .fil0 {fill:#9AD2AF}
   ]]>
  </style>
 </defs>
 <g id="Layer_x0020_1">
  <metadata id="CorelCorpID_0Corel-Layer"/>
  <path class="fil0" d="M-72505 19993l0 -8 -65 -3c-13,0 -15,-2 -16,9 29,0 53,2 81,2zm-6 -96l-69 0c0,14 -3,67 -6,79l81 0c-2,-25 -6,-52 -6,-79zm-77 0l-15 0 0 140c7,-7 4,-13 6,-32l9 -108zm99 140l0 -140 -14 0c0,9 2,7 2,16l7 91c2,17 -1,26 5,33zm37 -158l-2 -13 -171 0c-20,0 -18,-2 -18,17 0,10 23,6 42,6l147 0c1,-5 2,-5 2,-10zm-140 -39c0,10 -1,11 -2,18l14 0c0,-16 -1,-10 -12,-18zm69 10c-6,2 -18,4 -25,4 -9,0 -17,-2 -24,-4l0 8 49 0 0 -8zm22 -12c-4,3 -12,6 -12,12l0 8 12 0 0 -20zm-49 8c37,0 67,-31 74,-57 -15,17 -18,51 -78,51 -36,0 -52,-28 -64,-48 -2,-4 -1,-2 -3,-5 7,30 40,59 71,59zm76 -61c0,-5 -4,0 -2,0 0,0 2,6 2,0zm-147 -2c1,-4 -2,-7 -1,-1 0,0 0,8 1,1zm149 -4c0,-4 -3,-7 -2,-1 0,0 0,8 2,1zm-151 -4c1,-4 -3,-7 -1,-1 0,0 0,8 1,1zm151 -12l0 8c2,-4 2,4 1,-4 0,-5 0,-2 -1,-4zm-153 -23l-2 0 0 25 2 0 0 -25zm75 94c39,0 69,-38 69,-77 0,-27 -3,-39 -18,-59 -35,-50 -118,-21 -118,55 0,21 9,42 19,54 8,12 30,27 48,27zm78 -100l0 8c2,-3 2,5 1,-4 0,-4 0,-1 -1,-4zm-151 -2c1,-4 -3,-7 -1,-1 0,0 0,8 1,1zm151 -4c0,-4 -3,-7 -2,-1 0,0 0,8 2,1zm-76 -63c31,0 57,21 68,46l6 11c-4,-16 -16,-34 -26,-43 -60,-53 -120,12 -123,47l10 -22c12,-21 36,-39 65,-39zm88 85c0,18 -4,33 -9,46 -18,45 -22,7 -22,62 36,0 55,-7 45,35 -11,5 -18,4 -32,4l0 142c0,9 -7,7 -23,7 0,-19 -2,-29 -2,-47l-85 0c0,18 -2,28 -2,47 -16,0 -23,2 -23,-7l0 -142c-42,0 -38,1 -38,-28 0,-15 31,-11 48,-11 0,-24 7,-18 -3,-29 -38,-40 -39,-111 -6,-145 24,-26 37,-31 70,-31 46,0 82,52 82,97z"/>
  <path class="fil0" d="M-65859 19866l23 0 -4 188 -30 -1c1,-33 4,-60 4,-94l7 -93zm27 196l-42 -1c-11,-3 -4,-11 -3,-45l3 -51c2,-17 1,-36 2,-53l3 -49c-48,-1 -90,-4 -138,-6 -1,20 -3,32 -4,49l-6 151 -49 -2 9 -152c0,-19 2,-30 3,-49l-142 -6 -8 203c-12,0 -17,-2 -31,-2 -26,-1 -14,-5 -12,-80 1,-11 1,-22 1,-33 1,-11 3,-17 3,-30 1,-11 1,-22 1,-33 0,-13 3,-18 3,-28l-33 -1c-11,0 -6,-13 -5,-24 4,-27 2,-23 13,-23 47,-1 66,4 100,5l99 5c47,1 87,5 134,6 25,1 42,3 67,4l65 4 1 46 -30 0c-1,28 0,50 -1,79l-3 116zm-382 -19l-26 -3c1,-66 7,-127 9,-193 12,0 14,3 24,3l-7 193zm189 5l-30 0c1,-66 7,-126 9,-192l29 1c-2,66 -6,125 -8,191zm-6 -205l0 -27c76,2 148,8 222,10 0,14 2,20 1,35 -10,-5 -42,-3 -57,-4l-85 -4c-13,0 -18,-2 -28,-3 -21,-1 -54,3 -53,-7zm-13 5l-56 -3c-20,-1 -40,-1 -60,-2 -10,-1 -13,-3 -26,-3l-55 -2c-11,1 -16,-2 -28,-2 0,-7 3,-26 5,-33 12,1 15,3 26,3 23,2 69,0 87,3 16,3 62,4 84,4 13,0 18,3 28,3 -1,9 -4,23 -5,32z"/>
  <path class="fil0" d="M-67565 20049l21 0 0 -30 -27 0c1,11 5,19 6,30zm-305 -34l-26 0 0 30 20 0c1,-11 5,-20 6,-30zm295 -57c3,-14 5,-30 8,-43 -53,0 -105,0 -158,0 -55,0 -102,-2 -157,-2 12,53 -8,45 43,45l264 0zm-348 48l104 0c15,0 21,3 35,3l103 -1c14,0 20,3 35,3l104 -1c32,1 22,22 35,-66 3,-19 5,-43 10,-62l-55 0c0,12 -5,31 -7,42 -3,13 -5,29 -8,42l-309 0c-11,-1 -8,-4 -9,-15l-11 -69 -45 0c1,3 18,116 18,124zm35 -132c0,6 2,16 3,21 3,17 4,12 62,12l224 0c28,0 32,11 35,-10 1,-7 3,-14 3,-23l23 0 12 -122c-24,0 -42,2 -67,2l-312 0c-21,0 -17,-3 -16,14l6 80c3,29 -10,26 27,26zm360 0l41 0 -16 107c-1,12 -5,27 -5,38l-28 0 0 36 -37 0c-1,-11 -5,-25 -8,-36 -90,0 -187,-4 -279,-4 -2,10 -8,26 -8,36l-36 0 0 -38 -27 0 -20 -139 28 0c0,-30 -8,-93 -8,-126l409 -2c8,0 6,10 3,27 -2,12 -2,22 -3,34 -1,21 -6,44 -6,67z"/>
  <path class="fil0" d="M-67185 19965l-24 0c-28,0 -48,2 -75,2l0 11 101 0c-1,-5 -2,-6 -2,-13zm-4 -38l-89 0c-2,7 -4,24 -4,32l97 0c-2,-8 -4,-23 -4,-32zm23 122l8 0 0 -120 -21 0c0,21 5,39 7,59 1,20 6,39 6,61zm-122 -120l-21 0 0 122 6 0c0,-7 3,-23 4,-29l7 -62c1,-9 4,-22 4,-31zm140 -16c0,-35 -2,-22 -41,-23l-122 -2c-15,0 -12,8 -12,25 0,4 3,8 8,8l159 0c5,0 8,-4 8,-8zm-130 -47l-21 0 0 16 21 0 0 -16zm75 0l-65 0 0 16 65 0 0 -16zm29 0l-19 0 0 16 19 0 0 -16zm32 -169l-183 0 16 143c1,9 -2,18 6,18l135 0c8,0 7,-17 9,-37l11 -83c1,-6 5,-38 6,-41zm6 -6c6,20 -5,65 -8,89 -2,22 -10,67 -10,84 -6,2 -2,2 -10,2l0 16c28,0 24,3 24,35 0,6 -5,8 -10,10l0 130c-32,0 -22,5 -28,-33 -1,-13 -2,-27 -5,-38l-103 0 -9 71 -24 0 0 -130c-22,-2 -17,-45 -2,-45l14 0 0 -16 -10 0c0,-37 -20,-151 -14,-175 21,-5 153,-2 185,-2 3,0 8,1 10,2z"/>
  <path class="fil0" d="M-68590 19880l0 -37 -18 0c1,6 7,12 13,27l4 9c0,0 1,0 1,1zm31 -37l-21 0 0 39c0,-1 1,-2 1,-1 1,4 1,-3 1,-3 10,-26 2,-10 19,-35zm240 -16l-525 0c-7,0 -6,2 -7,8l538 0c-1,-6 0,-8 -6,-8zm12 14c-25,6 -91,2 -122,2 -41,0 -79,2 -122,2 -16,29 -17,21 -23,65 -4,23 4,53 13,71 9,18 25,36 41,47 13,9 29,15 45,20 8,3 11,2 15,7 -1,2 -1,4 -4,4 -15,0 -58,-20 -74,-34 -10,-9 -17,-17 -24,-29 -13,-20 -8,-15 -15,-31l-3 96 -10 0 0 -102c-1,2 0,0 -2,4l-6 15c-11,29 -38,55 -67,67 -7,3 -34,14 -41,14 -3,0 -3,-3 -4,-4 5,-7 1,-2 22,-9 26,-9 38,-16 58,-35 37,-37 46,-102 22,-150 -4,-7 -7,-8 -11,-16 -19,0 -39,0 -59,0 -20,0 -35,-2 -57,-2l-122 -5c-5,-7 -1,-17 6,-17l538 0c7,0 12,8 6,20z"/>
  <path class="fil0" d="M-68072 19944l-104 0 0 6 104 0 0 -6zm-6 -57c-25,0 -49,1 -74,0 -33,0 -12,-1 -24,49l104 0c-3,-6 -4,-38 -6,-49zm-102 0l-21 0 0 147 7 0 14 -147zm126 147l6 0 0 -147 -20 0 14 147zm6 -161l-153 0 0 6 153 0 0 -6zm14 -22c0,-13 -6,-17 -18,-17l-142 0c-22,0 -19,10 -19,23 0,5 4,8 8,8l163 0c7,0 8,-8 8,-14zm8 -8c0,13 3,26 -14,30l0 169c-30,0 -23,7 -26,-38 -2,-15 -4,-29 -4,-45l-108 0c0,14 -3,30 -4,43 -5,47 5,40 -27,40l0 -165c0,-9 -14,-4 -14,-26 0,-13 6,-23 18,-23l161 0c9,0 18,7 18,15z"/>
  <path class="fil0" d="M-70825 19995l-53 0 0 41 41 0c2,-7 4,-14 6,-21 2,-6 4,-15 6,-20zm922 41l41 0 0 -43 -53 0c2,5 12,36 12,43zm-706 -267l-267 0 0 216 267 0 0 -216zm468 173l-458 0 0 43 458 0 0 -43zm277 -173l-267 0 0 216 267 0 0 -216zm-277 118l-458 0 0 49 458 0 0 -49zm-234 -118l-224 0 0 112 224 0 0 -112zm234 0l-224 0c0,37 -2,67 -2,104l0 8 226 0 0 -112zm287 273c-68,0 -53,5 -62,-22 -3,-8 -6,-17 -7,-27l-892 0c-7,17 -10,51 -20,51l-51 0 0 -281 1032 0 0 279z"/>
  <path class="fil0" d="M-67003 19951l120 0 0 4 -120 0 0 -4zm2 -35l0 -14 114 0 2 41 -118 0c0,-12 2,-14 2,-27zm124 -14l4 0c0,43 8,121 8,165l-9 -123c-2,-15 -3,-26 -3,-42zm-146 165c0,-8 2,-8 2,-18 0,-53 6,-97 6,-147l6 0c0,10 -2,10 -2,21l-2 42c-1,9 -2,10 -2,21l-4 63c0,11 2,13 -4,18zm-2 -183c3,-3 3,-4 8,-4 29,0 134,-3 154,2 0,15 2,12 -30,12l-130 0c-2,-5 -2,-4 -2,-10zm130 -10l-96 0c-2,-8 -4,-23 -4,-33l104 0c-2,8 -4,23 -4,33zm-100 -43l104 0 0 2 -104 0 0 -2zm106 -8l-108 0c-1,-5 -2,-5 -2,-10l0 -8 112 0c-1,7 -2,8 -2,18zm-112 -29l114 0 0 2 -114 0 0 -2zm-16 -28l4 0c0,19 12,90 12,108l-4 0c-1,-22 -12,-82 -12,-108zm132 20l-116 0c-1,-4 -2,-4 -2,-10l0 -10 120 0 -2 20zm4 88c-7,-1 -7,6 -3,-23l7 -59c1,-7 1,-8 2,-14 1,-11 -3,-10 6,-12 -2,29 -12,81 -12,108zm-144 -151l160 0c0,11 -2,26 -4,35l-152 0c-1,-12 -4,-22 -4,-35zm10 151c-25,0 -23,22 -8,26 0,16 -2,26 -2,43l-5 63c0,7 1,15 1,22l-3 45 21 0c0,-37 6,-72 6,-112l122 0 6 100c1,6 2,7 2,14l20 0 -3 -63c-1,-8 0,-17 -1,-24 0,-11 -1,-12 -2,-21 0,-7 1,-15 0,-22l-2 -45c13,-3 20,-26 -10,-26 3,-33 18,-134 18,-157l-181 0c0,22 8,49 12,76l9 81z"/>
  <path class="fil0" d="M-72016 19953l-104 0 0 6 104 0 0 -6zm-6 -57c-24,0 -49,0 -73,0 -34,-1 -13,-2 -25,49l104 0c-3,-6 -4,-39 -6,-49zm-102 0l-20 0 0 146 6 0 14 -146zm126 146l7 0 0 -146 -21 0 14 146zm7 -160l-153 0 0 6 153 0 0 -6zm14 -23c0,-12 -6,-16 -18,-16l-143 0c-21,0 -18,10 -18,22 0,5 3,9 8,9l163 0c6,0 8,-8 8,-15zm8 -8c0,13 3,26 -14,31l0 169c-30,0 -23,7 -27,-39 -1,-15 -4,-28 -4,-45l-108 0c0,15 -2,31 -3,43 -5,47 5,41 -27,41l0 -165c0,-10 -14,-4 -14,-27 0,-12 5,-22 18,-22l161 0c8,0 18,7 18,14z"/>
  <g id="_1801229808352">
   <path class="fil0" d="M-71874 19964c-15,0 -9,23 -9,45 0,17 0,35 0,52l1 0c0,-15 4,-35 7,-50l6 -38c1,-6 1,-9 -5,-9zm903 89l2 -70c0,-18 2,-19 -10,-19 -7,0 -4,5 -2,18 2,17 10,58 10,71zm2 -102l-918 0 0 6 918 0 0 -6zm0 -13l-916 0 0 6 916 0 0 -6zm-630 -79l-288 0 0 72 288 0 0 -72zm330 0l-322 0 0 72 322 0 0 -72zm300 0l-292 0 0 72 292 0 0 -72zm-630 -91l-288 0 0 85 288 0 0 -85zm330 0l-322 0 0 85 322 0 0 -85zm300 0l-292 0 0 85 292 0 0 -85zm0 -26l-918 0 0 20 918 0 0 -20zm8 215l0 101c0,7 -3,11 -10,11 -7,0 -6,-11 -8,-23 -2,-15 -12,-71 -12,-82l-870 0 -13 92c-3,16 -3,19 -16,10l0 -95c1,-7 4,-7 -3,-7l0 -228 932 0 0 221z"/>
   <path class="fil0" d="M-71420 19803l-10 0c-7,0 -10,2 -11,8l32 0c-1,-6 -4,-8 -11,-8zm20 6c0,12 -13,8 -43,8 -9,0 -13,-21 21,-21 9,0 22,6 22,13z"/>
   <path class="fil0" d="M-71106 19897l-10 0c-7,0 -10,2 -11,8l32 0c-1,-6 -4,-8 -11,-8zm19 8c0,9 -10,7 -19,7 -9,-1 -18,-1 -28,-1 -3,-14 4,-21 23,-21 11,0 24,5 24,15z"/>
   <path class="fil0" d="M-71739 19803c-3,0 -5,0 -8,1 -6,2 -2,2 -8,3l0 5 33 0c-1,-7 -8,-9 -17,-9zm25 9c0,11 -21,7 -43,7 -11,0 -7,-21 13,-21 11,0 30,-2 30,14z"/>
   <path class="fil0" d="M-71422 19897c-10,0 -18,-1 -21,8l34 0c-2,-5 0,-3 -4,-6 -2,-1 -5,-2 -9,-2zm20 8c0,10 -21,6 -42,6 -9,0 -10,-21 21,-21 10,0 21,5 21,15z"/>
   <path class="fil0" d="M-71734 19897c-7,0 -9,-1 -14,2 -4,2 -4,1 -5,6l34 0c-4,-6 -5,-8 -15,-8zm21 13c-13,3 -28,1 -42,1 -8,0 -10,-21 21,-21 6,0 12,2 15,5 6,3 6,6 6,15z"/>
   <path class="fil0" d="M-71113 19803c-7,0 -14,3 -16,9l34 0c-2,-7 -10,-9 -18,-9zm25 9c0,10 -28,7 -46,7l-1 -10c0,-14 47,-18 47,3z"/>
  </g>
  <g id="_1801229807488">
   <path class="fil0" d="M-72226 20031l17 0 0 12 -14 0 -3 -12zm-177 12l-8 0 0 -12 17 0c-2,6 -2,12 -9,12zm7 -21l175 0 0 3 -175 0 0 -3zm-2 -85l177 0 0 79 -177 0 0 -79zm0 -98l175 0 0 86 -175 0 0 -86zm0 -8l175 0 0 2 -175 0 0 -2zm-13 -24l202 0 0 18 -202 0 0 -18zm-6 242c27,0 26,3 31,-18l154 0c5,21 4,18 31,18 0,-20 -2,-31 -2,-51l0 -197 -214 0 0 248z"/>
   <path class="fil0" d="M-72315 19982l0 -6 4 0c-2,8 -4,6 -4,6zm-12 -2c0,10 26,22 26,-4 0,-13 -26,-16 -26,4z"/>
   <path class="fil0" d="M-72317 19886c1,-5 1,-8 4,-4 5,4 0,3 -4,4zm-8 -12c-8,33 24,24 24,10 0,-15 -14,-15 -24,-10z"/>
  </g>
  <path class="fil0" d="M-65414 20018l31 0 0 34 -23 0c0,-4 -6,-31 -8,-34zm-285 34l-22 0 0 -34 31 0c-3,12 -6,23 -9,34zm-50 -59l0 -69 191 0 0 82 -175 0c-8,0 -16,-6 -16,-13zm376 13l-175 0 0 -82 191 0 0 65c0,10 -6,17 -16,17zm-376 -155c0,-17 17,-14 28,-14 16,0 24,-2 41,-2 13,20 17,26 45,38 53,25 170,19 202,-25 11,-16 0,-11 60,-11 10,0 16,6 16,16l0 65 -392 0 0 -67zm75 -33l2 -22 234 0c12,0 34,75 -112,86 -32,2 -124,-15 -124,-64zm126 -28l0 -35 26 0 0 -22 -10 0 0 14 -16 0c0,-23 6,-61 -28,-61 -17,0 -29,11 -29,29l8 0c8,-34 39,-21 39,-4l0 79c-58,-1 -106,-60 -106,-114l0 -16c0,-94 106,-153 172,-93 3,2 6,4 8,6 57,53 48,163 -21,203 -16,9 -24,9 -43,14zm-126 -122c0,49 27,95 68,117 1,0 4,1 4,2 5,2 2,1 5,3l-85 0c0,12 -2,15 -2,26 0,8 1,4 2,13 -16,0 -36,-1 -51,0 -17,1 -27,8 -27,26l0 132c0,25 18,25 31,25l0 47 39 0 10 -47 256 0c2,16 9,32 10,47l41 0 0 -47c12,0 24,-3 24,-19l0 -144c0,-27 -45,-20 -73,-20l-2 -39 -87 -2c3,-2 1,-1 4,-2 3,-2 4,-3 7,-5 8,-4 9,-5 15,-10 9,-7 16,-14 23,-24 46,-64 25,-165 -42,-199 -88,-44 -170,29 -170,120z"/>
  <path class="fil0" d="M-65271 20056l8 0 0 -136 -10 0 0 89c0,19 2,29 2,47zm122 -65l-104 0 0 2 104 0 0 -2zm2 -73l-108 0 0 65 108 0 0 -65zm10 63l0 77 8 0 0 -136 -10 0c0,22 2,37 2,59zm10 -86l-148 0 0 17 148 0 0 -17zm-91 -164l-2 0 0 156 2 0 0 -156zm22 0l-14 0 0 156 14 0 0 -156zm-57 144c1,-4 -2,-7 -1,-1 0,0 0,8 1,1zm104 -16c1,-4 -3,-7 -1,-1 0,0 0,8 1,1zm-106 -16c1,-4 -2,-8 -1,-2 0,0 0,9 1,2zm108 -17c1,-4 -3,-7 -1,-1 0,0 0,8 1,1zm-112 -22l0 8c2,-4 2,5 2,-4 -1,-4 0,-2 -2,-4zm114 -10c1,-4 -3,-8 -1,-2 0,1 0,9 1,2zm-114 -19c1,-3 -3,-7 -1,-1 0,0 0,8 1,1zm114 -20l0 8c2,-4 2,5 2,-4 -1,-4 0,-2 -2,-4zm-94 132l11 0 0 -156 -25 0c0,31 9,116 8,140 0,9 -2,16 6,16zm-22 -144c1,-4 -3,-7 -1,-1 0,0 0,8 1,1zm110 -12l-27 0 0 156 17 0 10 -156zm24 -15c0,-5 -1,-5 -2,-10l-124 0c-20,0 -26,-4 -26,16l152 0 0 -6zm4 -16c8,15 7,18 4,31l-14 0c0,15 -2,22 -2,38l-8 118c38,0 24,-7 24,61l0 116 -26 0 0 -34c0,-14 -2,-18 -2,-31l-108 0 0 65 -26 0 -2 -177 20 0c0,-31 -4,-65 -6,-95l-2 -61 -16 0c-1,-11 -7,-9 6,-33 53,0 103,2 158,2z"/>
  <g id="_1801229805568">
   <path class="fil0" d="M-69413 19832l-24 0 0 228 25 0 -1 -228zm252 -5l-22 0 1 230 22 0 -1 -230zm35 -22l-330 1 0 16 330 -1 0 -16zm49 -17c0,-11 -6,-12 -17,-12l-390 1c-25,0 -17,21 -8,21l407 -2c4,0 8,-3 8,-8zm-17 16l-24 1 0 22 -32 0 0 236 -42 0 -1 -236 -212 1 1 240 -41 0 -1 -234c0,-8 -5,-6 -18,-6l0 -22c-19,0 -47,4 -47,-19 0,-9 7,-16 16,-16l414 -1c8,0 14,13 13,21 -3,11 -12,13 -26,13z"/>
   <path class="fil0" d="M-68939 19845l-132 -2c0,20 -4,41 -6,59 48,0 91,2 136,2l2 -59zm20 -167c-40,11 -22,120 -22,146 3,-5 4,-10 4,-16l4 -59c1,-19 8,-58 14,-71zm-8 160l3 135c0,17 2,27 2,45 0,29 8,32 -4,40 -7,-5 -7,-9 -9,-19 -7,-38 -5,-90 -6,-129l-136 0c-4,16 -10,87 -16,118 -4,17 -4,30 -16,31 -2,-10 4,-40 7,-53l17 -108c2,-18 2,-42 6,-57l-18 0 0 -6 150 2c-2,-5 -6,-40 -6,-47l0 -49c0,-18 1,-32 7,-46 6,-14 13,-22 28,-27 30,-8 4,3 -3,69 -3,32 -6,66 -6,101z"/>
   <path class="fil0" d="M-69665 19882l0 22 136 0c-1,-20 -6,-40 -6,-62l-100 3c-14,0 -18,2 -32,2 0,14 2,20 2,35zm0 -55c0,-36 17,-128 -23,-149 3,12 5,12 9,34 5,31 9,65 9,96 1,7 1,13 5,19zm12 -92c0,33 1,72 -6,104 28,0 48,-2 75,-2 28,-1 49,-3 75,-3l0 8 -18 0c4,16 8,74 12,97l21 114c-1,8 -9,8 -12,-2 -7,-19 -21,-118 -23,-141 -47,0 -88,2 -136,2 0,35 1,67 -2,102 0,6 -2,21 -3,27 -3,18 -4,17 -13,18 -4,-9 2,-69 2,-86 -1,-84 9,-197 -12,-275 -7,-24 -21,-35 4,-28 25,7 35,36 36,65z"/>
  </g>
  <g id="_1801229802880">
   <path class="fil0" d="M-66681 20060l-51 0 0 41 39 0c2,-7 4,-13 6,-20 2,-5 4,-17 6,-21zm311 41l39 0 0 -41 -51 0c4,14 9,28 12,41zm64 -98l-53 0c-133,0 -260,2 -393,2l0 47 446 0 0 -49zm0 -59l-446 2 0 53c12,-5 191,-2 222,-2 77,0 147,-2 224,-2l0 -51zm-230 -399l-216 0 0 395c27,0 47,-2 75,-2l147 0c0,-35 -2,-64 -2,-97 0,-17 0,-33 0,-49 0,-19 -3,-32 -2,-49 0,-68 -2,-129 -2,-198zm16 393l214 -2 0 -391 -222 0c0,79 4,163 4,245 0,18 2,29 2,49 0,16 0,33 0,50 0,8 0,17 0,25 0,10 2,12 2,24zm244 -417c0,-7 -6,-16 -12,-16l-478 0c-14,0 -20,30 4,30l470 0c9,0 16,-6 16,-14zm8 -4c0,20 -9,26 -28,26l0 511c0,9 -7,6 -25,6l0 49 -57 0c0,-9 -4,-17 -7,-25 -2,-9 -3,-24 -11,-24l-271 0c-7,0 -6,7 -11,22 -2,7 -6,20 -7,27l-57 0 0 -49 -18 0 0 -517c-39,0 -33,-46 -4,-46l474 0c10,0 22,9 22,20z"/>
   <path class="fil0" d="M-66486 19718l0 59 -32 0 0 -59c0,-8 8,-6 26,-6 5,0 6,2 6,6z"/>
   <path class="fil0" d="M-66370 20040l-79 0c-8,0 -6,-5 -6,-18 0,-5 1,-6 6,-6l79 0 0 24z"/>
   <polygon class="fil0" points="-66616,19985 -66699,19985 -66699,19961 -66616,19961 "/>
   <polygon class="fil0" points="-66368,19983 -66453,19983 -66453,19961 -66368,19961 "/>
   <polygon class="fil0" points="-66618,20040 -66701,20040 -66701,20018 -66618,20018 "/>
   <path class="fil0" d="M-66543 19720l0 59 -33 0 0 -59c0,-9 8,-6 27,-6 4,0 6,1 6,6z"/>
  </g>
  <g id="_1801229800064">
   <path class="fil0" d="M8773 -3431l-137 0 0 110 104 0c5,-19 11,-35 17,-54 5,-13 12,-46 16,-56zm837 110l103 0 0 -110 -136 0c9,38 24,74 33,110zm169 -263l-142 0c-358,0 -698,6 -1055,6l0 125 1197 0 0 -131zm0 -158l-1197 5 0 142c31,-15 514,-5 596,-5 206,0 395,-6 601,-6l0 -136zm-618 -1072l-579 0 0 1061c74,0 128,-6 202,-6l394 0c0,-94 -6,-173 -6,-262 0,-44 0,-88 0,-131 0,-52 -6,-86 -5,-131 1,-183 -6,-348 -6,-531zm44 1055l574 -5 0 -1050 -596 0c0,212 12,436 11,656 0,48 6,80 6,131 0,46 0,92 0,137 0,22 -1,45 -1,66 1,28 6,33 6,65zm656 -1120c0,-20 -15,-44 -33,-44l-1285 0c-37,0 -51,82 11,82l1263 0c24,0 44,-17 44,-38zm22 -11c0,53 -24,71 -77,71l0 1372c0,23 -19,16 -65,16l0 132 -153 0c-2,-25 -11,-47 -19,-69 -7,-22 -10,-63 -30,-63l-728 0c-19,0 -16,18 -29,58 -6,19 -18,55 -20,74l-153 0 0 -132 -49 0 0 -1388c-105,0 -87,-126 -11,-126l1274 0c28,0 60,24 60,55z"/>
   <path class="fil1 str0" d="M9298 -4349l0 158 -88 0 0 -158c0,-23 21,-17 72,-17 12,0 16,4 16,17z"/>
   <polygon class="fil1 str0" points="9615,-3638 9385,-3638 9385,-3699 9615,-3699 "/>
   <path class="fil1 str0" d="M9143 -4345l0 158 -88 0 0 -158c0,-23 21,-17 72,-17 12,0 16,4 16,17z"/>
   <polygon class="fil1 str0" points="8945,-3641 8716,-3641 8716,-3701 8945,-3701 "/>
   <polygon class="fil1 str0" points="9608,-3491 9378,-3491 9378,-3551 9608,-3551 "/>
   <polygon class="fil1 str0" points="8938,-3494 8708,-3494 8708,-3554 8938,-3554 "/>
  </g>
  <path class="fil0" d="M-8150 -1582l0 -53 -428 -14c-82,-2 -100,-17 -106,54 194,0 352,13 534,13zm-40 -627l-454 0c0,92 -21,440 -40,520l534 0c-14,-165 -40,-341 -40,-520zm-507 0l-93 0 0 920c41,-48 24,-86 38,-215l55 -705zm653 920l0 -920 -93 0c1,59 10,47 13,107l44 596c15,111 -5,169 36,217zm240 -1040l-13 -80 -1121 0c-127,-2 -119,-14 -119,107 0,65 151,40 280,40l960 0c7,-30 13,-31 13,-67zm-920 -253c0,67 -1,69 -13,120l93 0c0,-107 -3,-69 -80,-120zm454 67c-39,9 -117,26 -160,26 -61,0 -111,-15 -160,-26l0 53 320 0 0 -53zm146 -80c-29,19 -80,38 -80,80l0 53 80 0 0 -133zm-320 53c240,0 440,-201 480,-373 -96,110 -116,333 -506,333 -240,0 -339,-182 -418,-315 -16,-27 -7,-14 -22,-32 45,197 259,387 466,387zm494 -400c0,-34 -22,-2 -8,0 0,0 8,37 8,0zm-960 -13c4,-26 -17,-48 -9,-9 0,1 0,55 9,9zm973 -27c5,-25 -17,-47 -9,-8 1,0 0,55 9,8zm-987 -27c5,-25 -17,-47 -8,-8 0,1 -1,55 8,8zm987 -80l0 54c16,-25 15,29 11,-27 -2,-29 0,-11 -11,-27zm-1000 -146l-13 0 0 160 13 0 0 -160zm493 613c256,0 454,-248 454,-507 0,-174 -25,-252 -120,-387 -230,-325 -774,-137 -774,361 0,141 60,275 122,358 55,75 195,175 318,175zm507 -653l0 53c16,-25 15,30 11,-27 -2,-29 0,-11 -11,-26zm-987 -14c5,-25 -17,-47 -8,-8 0,1 -1,55 8,8zm987 -26c5,-26 -17,-48 -9,-9 1,1 0,55 9,9zm-493 -414c202,0 372,136 443,303l37 71c-24,-103 -101,-223 -170,-284 -393,-344 -784,78 -804,310l67 -146c79,-137 234,-254 427,-254zm573 560c0,118 -23,213 -59,302 -115,288 -141,44 -141,405 231,0 357,-48 293,227 -75,36 -120,26 -213,26l0 934c0,54 -42,40 -147,40 0,-119 -13,-186 -13,-307l-560 0c0,121 -13,188 -13,307 -105,0 -147,14 -147,-40l0 -934c-279,0 -253,4 -253,-186 0,-95 207,-67 320,-67 0,-161 42,-121 -23,-191 -248,-266 -253,-727 -41,-953 160,-170 245,-203 464,-203 299,0 533,341 533,640z"/>
  <path class="fil0" d="M-13755 850l69 2 -10 577 -94 -3c3,-101 12,-183 14,-288l21 -288zm83 605l-129 -4c-35,-7 -14,-34 -11,-138l11 -157c4,-52 1,-110 4,-163l11 -150c-149,-4 -277,-14 -426,-18 -2,59 -10,98 -11,150l-19 464 -150 -5 25 -469c2,-59 9,-93 11,-150l-439 -19 -24 626c-37,-1 -50,-8 -94,-8 -81,-1 -43,-14 -36,-246 1,-33 0,-68 2,-101 2,-34 9,-51 10,-93 0,-34 1,-67 2,-101 1,-39 8,-55 9,-87l-100 -3c-34,-1 -20,-41 -16,-74 11,-81 5,-70 38,-70 147,-3 205,13 308,16l306 14c146,4 269,14 414,18 75,3 129,10 206,13l201 11 2 145 -94 -3c-3,89 2,155 -1,245l-10 357zm-1177 -59l-81 -8c5,-205 23,-391 29,-595 37,1 44,7 75,8l-23 595zm583 17l-94 -3c5,-202 23,-386 29,-588l88 2c-6,204 -18,386 -23,589zm-20 -634l2 -81c233,6 453,25 683,31 -1,41 4,61 3,107 -32,-17 -128,-10 -175,-11l-263 -14c-40,-1 -54,-7 -87,-9 -65,-4 -164,10 -163,-23zm-38 18l-175 -12c-60,-1 -123,-1 -182,-4 -33,-2 -43,-8 -81,-9l-171 -7c-32,2 -48,-6 -86,-7 1,-22 10,-80 15,-100 39,1 49,7 81,9 72,4 212,0 268,9 50,9 192,10 259,12 39,1 55,8 87,9 -3,27 -12,72 -15,100z"/>
  <path class="fil0" d="M-3651 5626l122 0 0 -183 -158 0c1,70 31,116 36,183zm-1834 -208l-159 0 0 184 122 0c6,-65 29,-121 37,-184zm1773 -342c19,-82 30,-175 49,-257 -318,0 -636,0 -954,0 -325,0 -613,-12 -941,-12 74,320 -51,269 257,269l1589 0zm-2091 293l624 0c89,0 127,13 207,13l625 -1c80,0 117,13 207,13l624 -1c193,6 135,129 211,-399 16,-112 32,-260 58,-371l-330 0c0,71 -27,184 -40,254 -15,77 -28,169 -46,248l-1860 1c-62,-7 -46,-22 -55,-92l-66 -411 -269 0c8,18 110,694 110,746zm208 -794c3,35 16,95 20,126 15,104 22,69 371,69l1346 0c171,0 193,66 212,-57 6,-41 20,-85 20,-138l134 0 73 -734c-142,0 -252,12 -403,12l-1871 0c-128,-2 -102,-16 -98,85l35 479c19,172 -58,158 161,158zm2164 0l245 0 -93 641c-10,70 -29,161 -29,227l-172 0 0 220 -220 0c-6,-71 -33,-155 -49,-220 -543,0 -1122,-25 -1675,-25 -14,61 -47,157 -49,220l-220 0 0 -232 -159 0 -122 -831 171 0c0,-184 -49,-558 -49,-759l2458 -12c47,0 32,60 17,164 -10,70 -14,134 -17,203 -8,128 -37,267 -37,404z"/>
  <path class="fil0" d="M-9047 5904l-187 0c-213,0 -367,16 -578,16l0 78 781 0c-9,-37 -15,-46 -16,-94zm-31 -296l-688 0c-12,52 -31,189 -31,249l750 0c-14,-61 -31,-175 -31,-249zm172 937l62 0 0 -922 -156 0c0,163 37,298 47,453 9,158 47,302 47,469zm-938 -922l-156 0 0 937 47 0c1,-53 20,-176 26,-223l55 -477c8,-63 28,-167 28,-237zm1078 -125c0,-264 -16,-166 -313,-171l-936 -16c-116,0 -94,61 -94,187 0,37 26,63 62,63l1219 0c36,0 62,-26 62,-63zm-1000 -359l-156 0 0 125 156 0 0 -125zm578 0l-499 0 0 125 499 0 0 -125zm219 0l-141 0 0 125 141 0 0 -125zm250 -1297l-1406 0 120 1099c8,71 -16,135 52,135l1031 0c62,0 56,-128 75,-284l82 -636c5,-45 35,-289 46,-314zm47 -46c41,156 -42,501 -63,687 -18,170 -78,510 -78,640 -41,20 -16,15 -78,16l0 125c218,0 188,21 188,265 0,48 -39,68 -79,79l0 999c-242,0 -170,37 -211,-257 -14,-99 -19,-204 -38,-290l-797 0 -63 547 -187 0 0 -999c-170,-15 -127,-344 -16,-344l110 0 0 -125 -78 0c0,-286 -153,-1156 -110,-1343 161,-38 1176,-16 1422,-16 24,0 59,8 78,16z"/>
  <path class="fil0" d="M-13962 -4265l0 -214 -106 0c9,35 42,67 79,158l23 49c1,1 3,5 4,7zm179 -214l-119 0 0 226c1,-2 3,-10 4,-8 7,23 6,-14 7,-17 60,-148 10,-55 108,-201zm1402 -95l-3066 0c-36,0 -32,14 -35,48l3136 0c-3,-34 1,-48 -35,-48zm71 83c-146,34 -529,12 -713,12 -239,0 -462,12 -713,12 -89,169 -98,123 -134,377 -19,134 27,313 79,415 52,105 143,210 238,273 78,52 168,90 261,119 48,15 68,9 91,40 -6,11 -8,24 -24,24 -88,0 -339,-117 -431,-199 -59,-53 -98,-98 -142,-167 -74,-118 -48,-91 -88,-185l-16 563 -60 0 0 -594c-8,12 0,-5 -12,23l-31 87c-70,166 -224,319 -393,392 -41,18 -200,80 -241,80 -17,0 -17,-15 -23,-24 30,-41 7,-11 126,-52 155,-53 227,-95 340,-206 218,-216 271,-592 128,-871 -21,-42 -38,-53 -60,-95 -115,0 -230,0 -344,0 -118,1 -206,-12 -333,-12l-717 -32c-30,-37 -5,-98 40,-98l3136 0c44,0 70,46 36,118z"/>
  <path class="fil0" d="M2902 -5428l-413 0 0 24 413 0 0 -24zm-24 -227c-97,0 -195,1 -292,0 -133,-2 -50,-6 -97,194l413 0c-12,-24 -15,-153 -24,-194zm-405 0l-81 0 0 583 25 0 56 -583zm502 583l24 0 0 -583 -81 0 57 583zm24 -639l-607 0 0 24 607 0 0 -24zm57 -89c0,-49 -24,-65 -73,-65l-566 0c-85,0 -73,38 -73,89 0,19 13,32 32,32l647 0c26,0 33,-32 33,-56zm32 -33c0,52 12,103 -57,122l0 671c-118,0 -91,28 -105,-153 -5,-58 -16,-112 -16,-179l-429 0c0,58 -9,121 -15,172 -19,186 21,160 -106,160l0 -655c0,-38 -57,-15 -57,-105 0,-51 23,-89 73,-89l639 0c34,0 73,27 73,56z"/>
  <path class="fil0" d="M2908 2919l-331 0 0 254 254 0c11,-46 23,-89 37,-129 12,-36 26,-97 40,-125zm5767 254l255 0 0 -267 -331 0c15,32 75,225 76,267zm-4418 -1668l-1668 0 0 1350 1668 0 0 -1350zm2928 1083l-2864 0 0 267 2864 0 0 -267zm1732 -1083l-1668 0 0 1350 1668 0 0 -1350zm-1732 739l-2864 0 0 305 2864 0 0 -305zm-1464 -739l-1400 0 0 701 1400 0 0 -701zm1464 0l-1400 0c0,231 -13,418 -13,650l0 51 1413 0 0 -701zm1795 1707c-426,0 -332,30 -386,-136 -18,-54 -41,-110 -46,-170l-5577 0c-49,103 -66,318 -127,318l-318 0 0 -1757 6454 0 0 1745z"/>
  <path class="fil0" d="M12301 -3038l864 0 0 30 -864 0 0 -30zm15 -249l0 -102 819 0 15 293 -849 0c0,-84 15,-101 15,-191zm892 -102l30 0c0,307 58,866 58,1186l-67 -885c-15,-106 -21,-185 -21,-301zm-1053 1186c4,-56 14,-59 15,-132 4,-377 43,-697 43,-1054l44 0c0,73 -13,72 -15,146l-14 308c-3,65 -15,70 -15,146l-29 454c1,78 16,98 -29,132zm-15 -1318c26,-17 26,-29 59,-29 209,0 963,-20 1112,15 0,109 15,88 -220,87l-936 0c-9,-39 -9,-27 -15,-73zm937 -73l-688 0c-14,-58 -29,-164 -29,-234l746 0c-14,58 -29,164 -29,234zm-717 -307l746 0 0 14 -746 0 0 -14zm761 -59l-776 0c-8,-33 -15,-33 -15,-73l0 -59 805 0c-4,57 -14,58 -14,132zm-805 -205l819 0 0 15 -819 0 0 -15zm-117 -205l29 0c0,141 88,647 88,776l-30 0c-3,-158 -87,-584 -87,-776zm948 146l-831 1c-8,-33 -15,-34 -15,-73l0 -74 864 0 -18 146zm32 630c-52,-5 -48,48 -19,-165l49 -420c3,-50 7,-59 12,-105 7,-77 -18,-68 46,-86 -17,207 -88,582 -88,776zm-1039 -1083l1156 0c0,81 -14,183 -29,249l-1098 0c-2,-84 -29,-155 -29,-249zm73 1083c-176,0 -164,162 -58,190 0,111 -15,184 -15,308l-29 453c-3,53 2,110 0,162l-15 321 146 0c0,-270 44,-522 44,-805l879 0 44 717c4,46 13,53 14,103l146 0 -27 -456c-6,-55 -1,-117 -1,-174 -1,-75 -12,-80 -16,-146 -2,-52 3,-109 1,-161l-15 -322c91,-24 140,-190 -73,-190 19,-233 131,-961 131,-1127l-1302 0c0,159 58,354 83,546l63 581z"/>
  <path class="fil0" d="M508 -3519l-837 0 0 50 837 0 0 -50zm-49 -459c-197,0 -395,3 -591,0 -271,-4 -102,-12 -197,394l837 0c-23,-49 -30,-311 -49,-394zm-820 0l-164 0 0 1181 49 0 115 -1181zm1016 1181l50 0 0 -1181 -164 0 114 1181zm50 -1296l-1230 0 0 50 1230 0 0 -50zm114 -180c0,-99 -47,-131 -147,-131l-1148 0c-172,0 -148,77 -148,180 0,39 28,66 66,66l1312 0c53,0 65,-65 65,-115zm66 -66c0,106 24,209 -115,246l0 1362c-240,0 -186,56 -214,-311 -9,-118 -32,-227 -32,-362l-869 0c0,116 -19,246 -30,347 -40,378 42,326 -216,326l0 -1329c0,-77 -115,-30 -115,-213 0,-102 47,-180 148,-180l1295 0c68,0 148,55 148,114z"/>
  <g id="_1801229794752">
   <path class="fil0" d="M-18293 -7803c-38,0 -24,59 -24,112 0,42 0,85 0,128l4 0c0,-37 10,-88 16,-124l15 -94c2,-13 2,-22 -11,-22zm2217 220l4 -172c0,-44 6,-48 -24,-48 -18,0 -9,14 -5,45 6,43 25,143 25,175zm4 -252l-2253 0 0 16 2253 0 0 -16zm0 -32l-2249 0 0 16 2249 0 0 -16zm-1546 -192l-707 0 0 176 707 0 0 -176zm811 0l-791 0 0 176 791 0 0 -176zm735 0l-715 0 0 176 715 0 0 -176zm-1546 -223l-707 0 0 207 707 0 0 -207zm811 0l-791 0 0 207 791 0 0 -207zm735 0l-715 0 0 207 715 0 0 -207zm0 -64l-2253 0 0 48 2253 0 0 -48zm20 527l0 248c0,17 -8,28 -24,28 -18,0 -14,-29 -19,-57 -6,-37 -29,-175 -29,-203l-2137 0 -34 226c-5,41 -6,47 -38,26l0 -233c1,-17 8,-18 -8,-19l0 -559 2289 0 0 543z"/>
   <path class="fil0" d="M-17179 -8198l-24 0c-17,0 -24,6 -28,20l80 0c-3,-14 -11,-20 -28,-20zm48 16c0,29 -31,19 -104,19 -22,0 -32,-51 52,-51 21,0 52,14 52,32z"/>
   <path class="fil0" d="M-16408 -7967l-24 0c-17,0 -24,7 -28,20l80 0c-4,-13 -11,-20 -28,-20zm48 20c0,21 -26,16 -48,16 -22,0 -45,0 -68,0 -8,-36 10,-52 56,-52 28,0 60,11 60,36z"/>
   <path class="fil0" d="M-17962 -8198c-9,0 -12,1 -20,4 -14,4 -6,4 -20,8l0 12 80 0c-1,-19 -18,-24 -40,-24zm60 24c0,25 -51,15 -104,15 -27,0 -18,-51 32,-51 26,0 72,-4 72,36z"/>
   <path class="fil0" d="M-17183 -7967c-24,0 -46,-3 -52,20l84 0c-6,-12 0,-6 -10,-13 -6,-4 -13,-7 -22,-7zm48 20c0,26 -51,16 -104,16 -20,0 -24,-52 52,-52 25,0 52,11 52,36z"/>
   <path class="fil0" d="M-17950 -7967c-17,0 -22,-1 -35,5 -10,5 -10,4 -13,15l84 0c-8,-16 -12,-20 -36,-20zm52 32c-32,8 -70,4 -104,4 -20,0 -24,-52 52,-52 14,0 28,5 38,11 15,8 14,16 14,37z"/>
   <path class="fil0" d="M-16424 -8198c-19,0 -36,8 -40,24l84 0c-5,-19 -25,-24 -44,-24zm60 24c0,25 -68,15 -112,15l-4 -23c0,-36 116,-45 116,8z"/>
  </g>
  <g id="_1801229793216">
   <path class="fil0" d="M-3796 -2585l146 -1 0 108 -126 0 -20 -107zm-1562 107l-72 0 0 -108 144 0c-13,54 -11,108 -72,108zm54 -180l1546 0 0 18 -1546 0 0 -18zm-18 -755l1564 0 0 701 -1564 0 0 -701zm0 -863l1546 0 0 755 -1546 0 0 -755zm0 -72l1546 0 0 18 -1546 0 0 -18zm-108 -216l1780 0 0 162 -1780 0 0 -162zm-54 2140c236,0 225,29 270,-162l1366 0c45,191 34,162 270,162 0,-172 -18,-275 -18,-450l0 -1744 -1888 0 0 2194z"/>
   <path class="fil0" d="M-4585 -3018l0 -54 36 0c-17,72 -35,52 -36,54zm-108 -18c0,89 234,196 234,-36 0,-114 -234,-141 -234,36z"/>
   <path class="fil0" d="M-4603 -3863c11,-42 5,-70 38,-38 39,40 -6,24 -38,38zm-72 -108c-68,293 216,216 216,90 0,-136 -130,-132 -216,-90z"/>
  </g>
  <path class="fil0" d="M-9507 3019l132 0 0 150 -97 0c-2,-19 -29,-137 -35,-150zm-1238 150l-98 0 0 -150 133 0c-12,50 -24,101 -35,150zm-221 -257l0 -300 831 0 0 354 -761 0c-32,0 -70,-25 -70,-54zm1635 54l-760 0 0 -354 831 0 0 283c0,43 -28,71 -71,71zm-1635 -673c0,-72 76,-62 123,-61 71,0 105,-9 177,-9 58,87 77,115 195,168 234,105 741,82 879,-111 48,-67 0,-48 261,-48 43,0 71,28 71,70l0 283 -1706 0 0 -292zm327 -141l9 -97 1016 0c51,0 150,326 -487,371 -139,10 -538,-65 -538,-274zm548 -124l0 -150 115 0 0 -97 -44 0 0 62 -71 0c0,-103 26,-266 -124,-266 -73,0 -124,49 -124,124l36 0c34,-146 168,-88 168,-18l0 345c-251,-5 -460,-259 -460,-495l0 -71c0,-409 461,-662 749,-404 12,11 23,18 34,28 247,230 209,706 -94,880 -67,39 -101,43 -185,62zm-548 -530c0,214 117,414 298,507 2,1 14,7 17,9 18,10 9,4 21,14l-372 0c0,54 -9,65 -9,115 0,33 6,17 9,53 -69,0 -154,-4 -221,0 -71,5 -115,39 -115,115l0 575c0,108 77,106 133,106l0 203 168 0 44 -203 1114 0c6,70 39,139 45,203l176 0 0 -203c50,0 106,-12 106,-80l0 -627c0,-118 -199,-89 -318,-89l-9 -168 -379 -7c13,-8 6,-4 17,-11 12,-7 20,-11 34,-19 31,-18 35,-22 62,-43 40,-32 69,-65 98,-105 201,-278 111,-719 -179,-864 -384,-192 -740,125 -740,519z"/>
  <path class="fil0" d="M-11795 -1501l49 0 0 -815 -61 0 0 535c0,111 12,172 12,280zm730 -389l-620 0 0 12 620 0 0 -12zm13 -438l-645 0 0 389 645 0 0 -389zm60 377l0 462 49 0 0 -815 -61 0c0,133 12,219 12,353zm61 -511l-888 0 0 97 888 0 0 -97zm-547 -986l-12 0 0 937 12 0 0 -937zm134 0l-86 0 0 937 86 0 0 -937zm-341 864c4,-23 -15,-43 -8,-7 0,0 0,50 8,7zm620 -97c5,-23 -15,-43 -7,-8 0,1 -1,51 7,8zm-632 -97c4,-23 -16,-44 -8,-8 0,1 0,50 8,8zm645 -98c4,-23 -16,-43 -8,-7 0,0 0,50 8,7zm-670 -133l0 48c15,-23 14,27 10,-24 -1,-27 1,-10 -10,-24zm682 -61c4,-23 -16,-44 -8,-8 0,1 0,50 8,8zm-682 -110c5,-23 -15,-43 -7,-8 0,1 -1,51 7,8zm682 -122l0 49c14,-23 13,27 10,-24 -2,-27 0,-10 -10,-25zm-560 791l61 0 0 -937 -146 0c0,191 51,699 48,841 -1,51 -12,96 37,96zm-134 -864c5,-23 -15,-43 -7,-7 0,1 -1,50 7,7zm657 -73l-158 0 0 937 97 0 61 -937zm146 -85c0,-33 -6,-33 -12,-61l-742 0c-118,0 -158,-27 -158,98l912 0 0 -37zm25 -97c46,88 42,107 24,182l-85 0c0,93 -11,137 -12,232l-49 705c230,0 146,-41 146,365l0 694 -158 0 0 -207c0,-81 -12,-105 -12,-182l-645 0 0 389 -158 0 -13 -1059 122 0c0,-188 -21,-390 -36,-572l-13 -365 -97 0c-5,-63 -40,-49 37,-194 321,0 618,12 949,12z"/>
  <g id="_1801229791616">
   <path class="fil0" d="M13718 -7570l-117 1 4 1088 116 0 -3 -1089zm1205 -23l-107 0 3 1099 107 -1 -3 -1098zm165 -107l-1575 5 0 78 1575 -6 0 -77zm233 -79c-1,-51 -29,-58 -78,-58l-1866 6c-119,1 -82,98 -39,98l1944 -7c23,0 39,-16 39,-39zm-78 78l-117 1 1 106 -156 1 4 1127 -204 1 -4 -1127 -1011 3 4 1147 -194 0 -4 -1117c0,-38 -25,-29 -87,-29l-1 -107c-92,0 -223,20 -224,-87 0,-47 31,-78 78,-78l1973 -6c42,0 70,62 62,99 -13,56 -57,66 -120,66z"/>
   <path class="fil0" d="M15982 -7509l-631 -7c0,93 -22,194 -29,281 228,0 432,9 652,8l8 -282zm95 -797c-191,52 -105,573 -105,700 15,-23 19,-50 20,-78l18 -281c6,-92 36,-276 67,-341zm-36 768l11 641c0,83 11,128 11,214 -1,141 38,156 -19,194 -35,-23 -32,-43 -42,-94 -33,-177 -28,-429 -28,-615l-652 2c-17,75 -49,413 -78,562 -16,82 -19,143 -75,148 -11,-46 21,-191 31,-250l82 -520c10,-84 13,-196 30,-270l-88 0 0 -29 719 10c-9,-23 -28,-190 -30,-226l0 -233c2,-86 8,-153 35,-217 27,-67 60,-107 134,-129 140,-41 19,12 -14,326 -16,154 -28,315 -27,486z"/>
   <path class="fil0" d="M12513 -7332l1 107 651 -3c-8,-92 -30,-190 -30,-291l-477 11c-66,0 -88,10 -155,10 0,68 10,95 10,166zm-1 -263c0,-171 85,-607 -109,-709 14,57 25,58 42,162 25,148 44,312 47,460 1,31 4,61 20,87zm57 -437c1,160 8,343 -27,495 133,0 229,-10 359,-10 133,-1 233,-11 360,-11l0 39 -87 0c17,74 39,352 57,459l97 546c-3,39 -38,39 -56,-12 -32,-90 -98,-562 -107,-672 -227,0 -423,11 -651,11 0,167 4,320 -9,486 -2,31 -11,103 -15,130 -16,85 -18,83 -61,84 -20,-40 9,-329 8,-408 -3,-400 45,-941 -59,-1315 -31,-112 -96,-166 23,-132 119,34 168,171 168,310z"/>
  </g>
  <g id="_1801229859488">
   <path class="fil0" d="M-59303 14547l-23 9 98 269c4,-2 4,-3 9,-5l13 -5 -97 -268zm3 112l-158 57 48 134 159 -58 -49 -133zm-457 53l-24 9 98 270 23 -9 -20 -53c-27,-74 -50,-143 -77,-217zm421 -153l-157 57 15 40c7,20 10,33 17,53l159 -58 -34 -92zm-166 60l-245 89 22 62 245 -89 -22 -62zm201 -96c-2,-6 -13,-9 -20,-6l-468 170c-7,3 -10,5 -14,9 0,7 0,24 19,17l474 -174c10,-4 12,-7 9,-16zm4 18l102 279 -39 14c-8,-24 -10,-38 -19,-34l-162 59 -62 -171 -247 90 53 145c8,24 12,41 21,64l-39 12 -101 -277c-26,3 -30,-30 -11,-37l484 -176c20,-7 35,21 20,32z"/>
   <path class="fil0" d="M-59594 14683l-42 15 3 8 42 -15 -3 -8zm15 12l-61 22 -8 -23 61 -22 8 23z"/>
   <path class="fil0" d="M-59346 14710l-44 16 3 8 44 -16 -3 -8zm13 12l-61 23 -8 -23 61 -22 8 22z"/>
   <path class="fil0" d="M-59377 14613l-44 16 3 8 44 -16 -3 -8zm9 -5l6 17 -61 22 -8 -23 55 -20c5,-2 7,-1 8,4z"/>
  </g>
  <g id="_1801229857664">
   <path class="fil0" d="M-3590 -93l-104 0 0 1221c20,-4 20,-8 44,-8l60 0 0 -1213zm-147 451l-719 0 0 606 719 0 0 -606zm-1905 -451l-112 0 0 1221 104 0 0 -242c0,-336 8,-643 8,-979zm1905 0l-710 0 0 182c0,90 -9,145 -9,234l719 0 0 -416zm-753 0l-1108 0 0 278 1108 0 0 -278zm944 -95c0,-28 -38,-52 -70,-52l-2121 0c-31,0 -48,8 -69,18 -6,27 -31,95 52,95l2148 -8c45,-1 60,-10 60,-53zm-9 78l0 1264 -173 0c0,-106 15,-164 -26,-164l-736 0 0 -771 -1117 0 0 658c0,107 -9,180 -9,286l-173 -11 0 -1253c-109,-26 -76,-165 9,-165l2190 0c91,0 111,136 35,156z"/>
   <path class="fil0" d="M-4949 29l-190 0 0 34 190 0 0 -34zm43 69l-277 0 0 -104 277 0 0 104z"/>
   <path class="fil0" d="M-3997 496l-199 0 0 35 199 0 0 -35zm35 69l-277 0 0 -103 277 0 0 103z"/>
   <path class="fil0" d="M-3979 63l-199 0 0 35 199 0 0 -35zm43 -8l0 78 -277 0 0 -104 251 0c20,0 26,6 26,26z"/>
  </g>
  <path class="fil0" d="M-67713 18411c-7,-19 -8,-30 -16,-28l-224 59 5 26 185 -47c19,-5 31,-5 50,-10zm-22 -60l-225 57 3 12c2,7 1,8 2,14l229 -58c-3,-12 -6,-14 -9,-25zm81 204l12 -3 -53 -209 -29 8c8,34 48,136 61,177 4,10 8,20 9,27zm-313 -145l-32 8 54 213 14 -3c-9,-37 -12,-73 -19,-109l-17 -109zm285 -100c-2,-9 -13,-15 -22,-13l-312 79c-24,6 -16,44 14,37l303 -77c14,-4 20,-12 17,-26zm7 -5c9,35 -13,25 -9,38l54 213 -30 7c-7,-13 -19,-53 -26,-72l-26 -74 -236 60c9,36 18,121 27,157 -22,5 -31,11 -33,2l-55 -215c-9,2 -12,1 -18,-3 -22,-15 -11,-42 4,-46l323 -82c10,-3 22,5 25,15z"/>
  <path class="fil0" d="M5654 -3318c-7,-86 -2,-136 -36,-136l-1036 9 -9 118 854 0c88,0 140,9 227,9zm-27 -282l-1036 0 0 55c0,31 -7,35 -9,63l1054 0c0,-55 -9,-66 -9,-118zm127 972l54 0 0 -963 -136 0c0,159 58,643 72,837 4,44 10,91 10,126zm-1199 -972l-145 0 0 981 63 0c0,-167 28,-326 37,-490l45 -491zm1344 -118c0,-45 -37,-81 -82,-81l-1435 0c-110,0 -118,172 18,172l1399 0c63,0 100,-29 100,-91zm37 -18c0,162 -82,95 -82,155l0 981 -136 0c-15,-65 -23,-253 -34,-339l-30 -352 -1090 0c0,168 -55,544 -55,709 -98,0 -145,14 -145,-27l0 -991c-41,-1 -54,-9 -75,-33 -78,-87 -1,-194 66,-194l1490 0c45,0 91,45 91,91z"/>
 </g>
</svg>
