<?xml version="1.0" encoding="UTF-8"?>
<!DOCTYPE svg PUBLIC "-//W3C//DTD SVG 1.1//EN" "http://www.w3.org/Graphics/SVG/1.1/DTD/svg11.dtd">
<!-- Creator: CorelDRAW X7 -->
<svg xmlns="http://www.w3.org/2000/svg" xml:space="preserve" width="20cm" height="20cm" version="1.1" style="shape-rendering:geometricPrecision; text-rendering:geometricPrecision; image-rendering:optimizeQuality; fill-rule:evenodd; clip-rule:evenodd"
viewBox="500 2000 1000 1000"
 xmlns:xlink="http://www.w3.org/1999/xlink">
 <defs>
  <style type="text/css">
   <![CDATA[
    .fil0 {fill:#9AD2AF}
    .fil1 {fill:#9AD2AF}
   ]]>
  </style>
 </defs>
 <g id="Layer_x0020_1">
  <metadata id="CorelCorpID_0Corel-Layer"/>
  <path class="fil0" d="M-43056 15552l101 0 0 948 -101 0 0 -948zm-1050 -17l93 0 0 957 -93 0 0 -957zm-144 -93l1372 0 0 67 -1372 0 0 -67zm-203 -68c0,-45 24,-51 68,-51l1625 0c103,0 72,85 34,85l-1693 0c-20,0 -34,-14 -34,-34zm68 68l101 0 0 93 136 0 0 982 177 0 0 -982 881 0 0 999 169 0 0 -974c0,-33 22,-25 77,-25l0 -93c80,0 194,17 194,-77 0,-40 -27,-67 -67,-67l-1719 0c-37,0 -61,54 -54,87 11,48 50,57 105,57z"/>
  <path class="fil0" d="M-45029 15611l550 -8c0,81 20,169 26,245 -199,0 -376,9 -567,9l-9 -246zm-85 -694c167,44 94,499 94,609 -13,-20 -17,-43 -18,-67l-17 -246c-5,-79 -32,-240 -59,-296zm34 669l-8 558c0,72 -9,112 -9,187 1,122 -33,136 17,169 31,-21 28,-38 37,-82 28,-155 23,-374 23,-536l567 0c15,65 44,359 70,489 14,72 17,125 65,129 10,-41 -18,-166 -27,-218l-73 -452c-9,-73 -12,-172 -27,-236l77 0 0 -25 -627 10c8,-19 24,-165 25,-197l0 -202c-2,-75 -7,-134 -31,-190 -24,-58 -53,-92 -117,-111 -122,-36 -17,10 13,283 15,135 25,274 25,424z"/>
  <path class="fil0" d="M-42006 15755l0 93 -568 0c7,-80 26,-166 26,-254l415 8c57,0 77,9 135,9 0,59 -8,83 -8,144zm0 -229c0,-149 -76,-529 93,-618 -12,50 -22,51 -36,142 -21,128 -38,272 -40,400 0,27 -3,54 -17,76zm-51 -381c0,140 -6,300 25,432 -115,0 -200,-8 -313,-8 -116,0 -203,-9 -313,-9l0 34 76 0c-15,65 -33,307 -48,400l-84 476c3,34 34,34 49,-10 28,-79 83,-490 91,-587 199,0 369,9 568,9 0,145 -3,279 9,423 2,27 9,89 14,113 13,74 15,73 53,74 17,-36 -9,-287 -9,-356 2,-348 -41,-820 48,-1146 27,-98 83,-145 -21,-115 -103,30 -145,150 -145,270z"/>
  <path class="fil0" d="M-43056 15552l101 0 0 948 -101 0 0 -948zm-1050 -17l93 0 0 957 -93 0 0 -957zm-144 -93l1372 0 0 67 -1372 0 0 -67zm-203 -68c0,-45 24,-51 68,-51l1625 0c103,0 72,85 34,85l-1693 0c-20,0 -34,-14 -34,-34zm68 68l101 0 0 93 136 0 0 982 177 0 0 -982 881 0 0 999 169 0 0 -974c0,-33 22,-25 77,-25l0 -93c80,0 194,17 194,-77 0,-40 -27,-67 -67,-67l-1719 0c-37,0 -61,54 -54,87 11,48 50,57 105,57z"/>
  <path class="fil0" d="M-45029 15611l550 -8c0,81 20,169 26,245 -199,0 -376,9 -567,9l-9 -246zm-85 -694c167,44 94,499 94,609 -13,-20 -17,-43 -18,-67l-17 -246c-5,-79 -32,-240 -59,-296zm34 669l-8 558c0,72 -9,112 -9,187 1,122 -33,136 17,169 31,-21 28,-38 37,-82 28,-155 23,-374 23,-536l567 0c15,65 44,359 70,489 14,72 17,125 65,129 10,-41 -18,-166 -27,-218l-73 -452c-9,-73 -12,-172 -27,-236l77 0 0 -25 -627 10c8,-19 24,-165 25,-197l0 -202c-2,-75 -7,-134 -31,-190 -24,-58 -53,-92 -117,-111 -122,-36 -17,10 13,283 15,135 25,274 25,424z"/>
  <path class="fil0" d="M-42006 15755l0 93 -568 0c7,-80 26,-166 26,-254l415 8c57,0 77,9 135,9 0,59 -8,83 -8,144zm0 -229c0,-149 -76,-529 93,-618 -12,50 -22,51 -36,142 -21,128 -38,272 -40,400 0,27 -3,54 -17,76zm-51 -381c0,140 -6,300 25,432 -115,0 -200,-8 -313,-8 -116,0 -203,-9 -313,-9l0 34 76 0c-15,65 -33,307 -48,400l-84 476c3,34 34,34 49,-10 28,-79 83,-490 91,-587 199,0 369,9 568,9 0,145 -3,279 9,423 2,27 9,89 14,113 13,74 15,73 53,74 17,-36 -9,-287 -9,-356 2,-348 -41,-820 48,-1146 27,-98 83,-145 -21,-115 -103,30 -145,150 -145,270z"/>
  <path class="fil1" d="M1187 379l0 -185 75 0c-6,29 -30,57 -57,136l-15 43c-1,1 -2,3 -3,6zm-126 -185l84 0 0 196c-2,-3 -3,-9 -3,-8 -6,21 -4,-12 -5,-14 -42,-129 -8,-49 -76,-174zm-985 -83l2155 0c25,0 23,13 25,42l-2206 0c2,-29 0,-42 26,-42zm-51 72c103,29 372,11 502,11 167,0 324,10 501,10 63,147 69,107 94,326 13,116 -19,271 -55,360 -37,90 -101,181 -168,236 -55,44 -118,77 -183,103 -35,12 -48,7 -64,34 4,10 6,20 17,20 62,0 237,-100 302,-172 42,-45 70,-84 100,-145 52,-102 34,-77 62,-159l12 487 42 0 0 -515c6,11 0,-3 8,21l22 75c49,144 158,277 276,339 29,16 141,69 169,69 13,0 13,-12 17,-20 -21,-35 -5,-10 -89,-45 -108,-45 -160,-82 -239,-179 -153,-185 -190,-512 -89,-753 14,-36 25,-46 41,-82 81,0 162,0 243,0 83,1 144,-10 234,-10l504 -28c21,-31 4,-85 -28,-85l-2206 0c-31,0 -49,40 -25,102z"/>
 </g>
</svg>
