<?xml version="1.0" encoding="UTF-8"?>
<!DOCTYPE svg PUBLIC "-//W3C//DTD SVG 1.1//EN" "http://www.w3.org/Graphics/SVG/1.1/DTD/svg11.dtd">
<!-- Creator: CorelDRAW X7 -->
<svg xmlns="http://www.w3.org/2000/svg" xml:space="preserve" width="21cm" height="29.7cm" version="1.1" style="shape-rendering:geometricPrecision; text-rendering:geometricPrecision; image-rendering:optimizeQuality; fill-rule:evenodd; clip-rule:evenodd"
viewBox="0 0 21000 29700"
 xmlns:xlink="http://www.w3.org/1999/xlink">
 <defs>
  <style type="text/css">
   <![CDATA[
    .str0 {stroke:#9AD2AF;stroke-width:7.62}
    .fil1 {fill:#FEFEFE}
    .fil0 {fill:#9AD2AF}
   ]]>
  </style>
 </defs>
 <g id="Layer_x0020_1">
  <metadata id="CorelCorpID_0Corel-Layer"/>
  <path class="fil0" d="M-72505 19993l0 -8 -65 -3c-13,0 -15,-2 -16,9 29,0 53,2 81,2zm-6 -96l-69 0c0,14 -3,67 -6,79l81 0c-2,-25 -6,-52 -6,-79zm-77 0l-15 0 0 140c7,-7 4,-13 6,-32l9 -108zm99 140l0 -140 -14 0c0,9 2,7 2,16l7 91c2,17 -1,26 5,33zm37 -158l-2 -13 -171 0c-20,0 -18,-2 -18,17 0,10 23,6 42,6l147 0c1,-5 2,-5 2,-10zm-140 -39c0,10 -1,11 -2,18l14 0c0,-16 -1,-10 -12,-18zm69 10c-6,2 -18,4 -25,4 -9,0 -17,-2 -24,-4l0 8 49 0 0 -8zm22 -12c-4,3 -12,6 -12,12l0 8 12 0 0 -20zm-49 8c37,0 67,-31 74,-57 -15,17 -18,51 -78,51 -36,0 -52,-28 -64,-48 -2,-4 -1,-2 -3,-5 7,30 40,59 71,59zm76 -61c0,-5 -4,0 -2,0 0,0 2,6 2,0zm-147 -2c1,-4 -2,-7 -1,-1 0,0 0,8 1,1zm149 -4c0,-4 -3,-7 -2,-1 0,0 0,8 2,1zm-151 -4c1,-4 -3,-7 -1,-1 0,0 0,8 1,1zm151 -12l0 8c2,-4 2,4 1,-4 0,-5 0,-2 -1,-4zm-153 -23l-2 0 0 25 2 0 0 -25zm75 94c39,0 69,-38 69,-77 0,-27 -3,-39 -18,-59 -35,-50 -118,-21 -118,55 0,21 9,42 19,54 8,12 30,27 48,27zm78 -100l0 8c2,-3 2,5 1,-4 0,-4 0,-1 -1,-4zm-151 -2c1,-4 -3,-7 -1,-1 0,0 0,8 1,1zm151 -4c0,-4 -3,-7 -2,-1 0,0 0,8 2,1zm-76 -63c31,0 57,21 68,46l6 11c-4,-16 -16,-34 -26,-43 -60,-53 -120,12 -123,47l10 -22c12,-21 36,-39 65,-39zm88 85c0,18 -4,33 -9,46 -18,45 -22,7 -22,62 36,0 55,-7 45,35 -11,5 -18,4 -32,4l0 142c0,9 -7,7 -23,7 0,-19 -2,-29 -2,-47l-85 0c0,18 -2,28 -2,47 -16,0 -23,2 -23,-7l0 -142c-42,0 -38,1 -38,-28 0,-15 31,-11 48,-11 0,-24 7,-18 -3,-29 -38,-40 -39,-111 -6,-145 24,-26 37,-31 70,-31 46,0 82,52 82,97z"/>
  <path class="fil0" d="M-65859 19866l23 0 -4 188 -30 -1c1,-33 4,-60 4,-94l7 -93zm27 196l-42 -1c-11,-3 -4,-11 -3,-45l3 -51c2,-17 1,-36 2,-53l3 -49c-48,-1 -90,-4 -138,-6 -1,20 -3,32 -4,49l-6 151 -49 -2 9 -152c0,-19 2,-30 3,-49l-142 -6 -8 203c-12,0 -17,-2 -31,-2 -26,-1 -14,-5 -12,-80 1,-11 1,-22 1,-33 1,-11 3,-17 3,-30 1,-11 1,-22 1,-33 0,-13 3,-18 3,-28l-33 -1c-11,0 -6,-13 -5,-24 4,-27 2,-23 13,-23 47,-1 66,4 100,5l99 5c47,1 87,5 134,6 25,1 42,3 67,4l65 4 1 46 -30 0c-1,28 0,50 -1,79l-3 116zm-382 -19l-26 -3c1,-66 7,-127 9,-193 12,0 14,3 24,3l-7 193zm189 5l-30 0c1,-66 7,-126 9,-192l29 1c-2,66 -6,125 -8,191zm-6 -205l0 -27c76,2 148,8 222,10 0,14 2,20 1,35 -10,-5 -42,-3 -57,-4l-85 -4c-13,0 -18,-2 -28,-3 -21,-1 -54,3 -53,-7zm-13 5l-56 -3c-20,-1 -40,-1 -60,-2 -10,-1 -13,-3 -26,-3l-55 -2c-11,1 -16,-2 -28,-2 0,-7 3,-26 5,-33 12,1 15,3 26,3 23,2 69,0 87,3 16,3 62,4 84,4 13,0 18,3 28,3 -1,9 -4,23 -5,32z"/>
  <path class="fil0" d="M-67565 20049l21 0 0 -30 -27 0c1,11 5,19 6,30zm-305 -34l-26 0 0 30 20 0c1,-11 5,-20 6,-30zm295 -57c3,-14 5,-30 8,-43 -53,0 -105,0 -158,0 -55,0 -102,-2 -157,-2 12,53 -8,45 43,45l264 0zm-348 48l104 0c15,0 21,3 35,3l103 -1c14,0 20,3 35,3l104 -1c32,1 22,22 35,-66 3,-19 5,-43 10,-62l-55 0c0,12 -5,31 -7,42 -3,13 -5,29 -8,42l-309 0c-11,-1 -8,-4 -9,-15l-11 -69 -45 0c1,3 18,116 18,124zm35 -132c0,6 2,16 3,21 3,17 4,12 62,12l224 0c28,0 32,11 35,-10 1,-7 3,-14 3,-23l23 0 12 -122c-24,0 -42,2 -67,2l-312 0c-21,0 -17,-3 -16,14l6 80c3,29 -10,26 27,26zm360 0l41 0 -16 107c-1,12 -5,27 -5,38l-28 0 0 36 -37 0c-1,-11 -5,-25 -8,-36 -90,0 -187,-4 -279,-4 -2,10 -8,26 -8,36l-36 0 0 -38 -27 0 -20 -139 28 0c0,-30 -8,-93 -8,-126l409 -2c8,0 6,10 3,27 -2,12 -2,22 -3,34 -1,21 -6,44 -6,67z"/>
  <path class="fil0" d="M-67185 19965l-24 0c-28,0 -48,2 -75,2l0 11 101 0c-1,-5 -2,-6 -2,-13zm-4 -38l-89 0c-2,7 -4,24 -4,32l97 0c-2,-8 -4,-23 -4,-32zm23 122l8 0 0 -120 -21 0c0,21 5,39 7,59 1,20 6,39 6,61zm-122 -120l-21 0 0 122 6 0c0,-7 3,-23 4,-29l7 -62c1,-9 4,-22 4,-31zm140 -16c0,-35 -2,-22 -41,-23l-122 -2c-15,0 -12,8 -12,25 0,4 3,8 8,8l159 0c5,0 8,-4 8,-8zm-130 -47l-21 0 0 16 21 0 0 -16zm75 0l-65 0 0 16 65 0 0 -16zm29 0l-19 0 0 16 19 0 0 -16zm32 -169l-183 0 16 143c1,9 -2,18 6,18l135 0c8,0 7,-17 9,-37l11 -83c1,-6 5,-38 6,-41zm6 -6c6,20 -5,65 -8,89 -2,22 -10,67 -10,84 -6,2 -2,2 -10,2l0 16c28,0 24,3 24,35 0,6 -5,8 -10,10l0 130c-32,0 -22,5 -28,-33 -1,-13 -2,-27 -5,-38l-103 0 -9 71 -24 0 0 -130c-22,-2 -17,-45 -2,-45l14 0 0 -16 -10 0c0,-37 -20,-151 -14,-175 21,-5 153,-2 185,-2 3,0 8,1 10,2z"/>
  <path class="fil0" d="M-68590 19880l0 -37 -18 0c1,6 7,12 13,27l4 9c0,0 1,0 1,1zm31 -37l-21 0 0 39c0,-1 1,-2 1,-1 1,4 1,-3 1,-3 10,-26 2,-10 19,-35zm240 -16l-525 0c-7,0 -6,2 -7,8l538 0c-1,-6 0,-8 -6,-8zm12 14c-25,6 -91,2 -122,2 -41,0 -79,2 -122,2 -16,29 -17,21 -23,65 -4,23 4,53 13,71 9,18 25,36 41,47 13,9 29,15 45,20 8,3 11,2 15,7 -1,2 -1,4 -4,4 -15,0 -58,-20 -74,-34 -10,-9 -17,-17 -24,-29 -13,-20 -8,-15 -15,-31l-3 96 -10 0 0 -102c-1,2 0,0 -2,4l-6 15c-11,29 -38,55 -67,67 -7,3 -34,14 -41,14 -3,0 -3,-3 -4,-4 5,-7 1,-2 22,-9 26,-9 38,-16 58,-35 37,-37 46,-102 22,-150 -4,-7 -7,-8 -11,-16 -19,0 -39,0 -59,0 -20,0 -35,-2 -57,-2l-122 -5c-5,-7 -1,-17 6,-17l538 0c7,0 12,8 6,20z"/>
  <path class="fil0" d="M-68072 19944l-104 0 0 6 104 0 0 -6zm-6 -57c-25,0 -49,1 -74,0 -33,0 -12,-1 -24,49l104 0c-3,-6 -4,-38 -6,-49zm-102 0l-21 0 0 147 7 0 14 -147zm126 147l6 0 0 -147 -20 0 14 147zm6 -161l-153 0 0 6 153 0 0 -6zm14 -22c0,-13 -6,-17 -18,-17l-142 0c-22,0 -19,10 -19,23 0,5 4,8 8,8l163 0c7,0 8,-8 8,-14zm8 -8c0,13 3,26 -14,30l0 169c-30,0 -23,7 -26,-38 -2,-15 -4,-29 -4,-45l-108 0c0,14 -3,30 -4,43 -5,47 5,40 -27,40l0 -165c0,-9 -14,-4 -14,-26 0,-13 6,-23 18,-23l161 0c9,0 18,7 18,15z"/>
  <path class="fil0" d="M-70825 19995l-53 0 0 41 41 0c2,-7 4,-14 6,-21 2,-6 4,-15 6,-20zm922 41l41 0 0 -43 -53 0c2,5 12,36 12,43zm-706 -267l-267 0 0 216 267 0 0 -216zm468 173l-458 0 0 43 458 0 0 -43zm277 -173l-267 0 0 216 267 0 0 -216zm-277 118l-458 0 0 49 458 0 0 -49zm-234 -118l-224 0 0 112 224 0 0 -112zm234 0l-224 0c0,37 -2,67 -2,104l0 8 226 0 0 -112zm287 273c-68,0 -53,5 -62,-22 -3,-8 -6,-17 -7,-27l-892 0c-7,17 -10,51 -20,51l-51 0 0 -281 1032 0 0 279z"/>
  <path class="fil0" d="M-67003 19951l120 0 0 4 -120 0 0 -4zm2 -35l0 -14 114 0 2 41 -118 0c0,-12 2,-14 2,-27zm124 -14l4 0c0,43 8,121 8,165l-9 -123c-2,-15 -3,-26 -3,-42zm-146 165c0,-8 2,-8 2,-18 0,-53 6,-97 6,-147l6 0c0,10 -2,10 -2,21l-2 42c-1,9 -2,10 -2,21l-4 63c0,11 2,13 -4,18zm-2 -183c3,-3 3,-4 8,-4 29,0 134,-3 154,2 0,15 2,12 -30,12l-130 0c-2,-5 -2,-4 -2,-10zm130 -10l-96 0c-2,-8 -4,-23 -4,-33l104 0c-2,8 -4,23 -4,33zm-100 -43l104 0 0 2 -104 0 0 -2zm106 -8l-108 0c-1,-5 -2,-5 -2,-10l0 -8 112 0c-1,7 -2,8 -2,18zm-112 -29l114 0 0 2 -114 0 0 -2zm-16 -28l4 0c0,19 12,90 12,108l-4 0c-1,-22 -12,-82 -12,-108zm132 20l-116 0c-1,-4 -2,-4 -2,-10l0 -10 120 0 -2 20zm4 88c-7,-1 -7,6 -3,-23l7 -59c1,-7 1,-8 2,-14 1,-11 -3,-10 6,-12 -2,29 -12,81 -12,108zm-144 -151l160 0c0,11 -2,26 -4,35l-152 0c-1,-12 -4,-22 -4,-35zm10 151c-25,0 -23,22 -8,26 0,16 -2,26 -2,43l-5 63c0,7 1,15 1,22l-3 45 21 0c0,-37 6,-72 6,-112l122 0 6 100c1,6 2,7 2,14l20 0 -3 -63c-1,-8 0,-17 -1,-24 0,-11 -1,-12 -2,-21 0,-7 1,-15 0,-22l-2 -45c13,-3 20,-26 -10,-26 3,-33 18,-134 18,-157l-181 0c0,22 8,49 12,76l9 81z"/>
  <path class="fil0" d="M-72016 19953l-104 0 0 6 104 0 0 -6zm-6 -57c-24,0 -49,0 -73,0 -34,-1 -13,-2 -25,49l104 0c-3,-6 -4,-39 -6,-49zm-102 0l-20 0 0 146 6 0 14 -146zm126 146l7 0 0 -146 -21 0 14 146zm7 -160l-153 0 0 6 153 0 0 -6zm14 -23c0,-12 -6,-16 -18,-16l-143 0c-21,0 -18,10 -18,22 0,5 3,9 8,9l163 0c6,0 8,-8 8,-15zm8 -8c0,13 3,26 -14,31l0 169c-30,0 -23,7 -27,-39 -1,-15 -4,-28 -4,-45l-108 0c0,15 -2,31 -3,43 -5,47 5,41 -27,41l0 -165c0,-10 -14,-4 -14,-27 0,-12 5,-22 18,-22l161 0c8,0 18,7 18,14z"/>
  <g id="_1801227802224">
   <path class="fil0" d="M-71874 19964c-15,0 -9,23 -9,45 0,17 0,35 0,52l1 0c0,-15 4,-35 7,-50l6 -38c1,-6 1,-9 -5,-9zm903 89l2 -70c0,-18 2,-19 -10,-19 -7,0 -4,5 -2,18 2,17 10,58 10,71zm2 -102l-918 0 0 6 918 0 0 -6zm0 -13l-916 0 0 6 916 0 0 -6zm-630 -79l-288 0 0 72 288 0 0 -72zm330 0l-322 0 0 72 322 0 0 -72zm300 0l-292 0 0 72 292 0 0 -72zm-630 -91l-288 0 0 85 288 0 0 -85zm330 0l-322 0 0 85 322 0 0 -85zm300 0l-292 0 0 85 292 0 0 -85zm0 -26l-918 0 0 20 918 0 0 -20zm8 215l0 101c0,7 -3,11 -10,11 -7,0 -6,-11 -8,-23 -2,-15 -12,-71 -12,-82l-870 0 -13 92c-3,16 -3,19 -16,10l0 -95c1,-7 4,-7 -3,-7l0 -228 932 0 0 221z"/>
   <path class="fil0" d="M-71420 19803l-10 0c-7,0 -10,2 -11,8l32 0c-1,-6 -4,-8 -11,-8zm20 6c0,12 -13,8 -43,8 -9,0 -13,-21 21,-21 9,0 22,6 22,13z"/>
   <path class="fil0" d="M-71106 19897l-10 0c-7,0 -10,2 -11,8l32 0c-1,-6 -4,-8 -11,-8zm19 8c0,9 -10,7 -19,7 -9,-1 -18,-1 -28,-1 -3,-14 4,-21 23,-21 11,0 24,5 24,15z"/>
   <path class="fil0" d="M-71739 19803c-3,0 -5,0 -8,1 -6,2 -2,2 -8,3l0 5 33 0c-1,-7 -8,-9 -17,-9zm25 9c0,11 -21,7 -43,7 -11,0 -7,-21 13,-21 11,0 30,-2 30,14z"/>
   <path class="fil0" d="M-71422 19897c-10,0 -18,-1 -21,8l34 0c-2,-5 0,-3 -4,-6 -2,-1 -5,-2 -9,-2zm20 8c0,10 -21,6 -42,6 -9,0 -10,-21 21,-21 10,0 21,5 21,15z"/>
   <path class="fil0" d="M-71734 19897c-7,0 -9,-1 -14,2 -4,2 -4,1 -5,6l34 0c-4,-6 -5,-8 -15,-8zm21 13c-13,3 -28,1 -42,1 -8,0 -10,-21 21,-21 6,0 12,2 15,5 6,3 6,6 6,15z"/>
   <path class="fil0" d="M-71113 19803c-7,0 -14,3 -16,9l34 0c-2,-7 -10,-9 -18,-9zm25 9c0,10 -28,7 -46,7l-1 -10c0,-14 47,-18 47,3z"/>
  </g>
  <g id="_1801227865840">
   <path class="fil0" d="M-72226 20031l17 0 0 12 -14 0 -3 -12zm-177 12l-8 0 0 -12 17 0c-2,6 -2,12 -9,12zm7 -21l175 0 0 3 -175 0 0 -3zm-2 -85l177 0 0 79 -177 0 0 -79zm0 -98l175 0 0 86 -175 0 0 -86zm0 -8l175 0 0 2 -175 0 0 -2zm-13 -24l202 0 0 18 -202 0 0 -18zm-6 242c27,0 26,3 31,-18l154 0c5,21 4,18 31,18 0,-20 -2,-31 -2,-51l0 -197 -214 0 0 248z"/>
   <path class="fil0" d="M-72315 19982l0 -6 4 0c-2,8 -4,6 -4,6zm-12 -2c0,10 26,22 26,-4 0,-13 -26,-16 -26,4z"/>
   <path class="fil0" d="M-72317 19886c1,-5 1,-8 4,-4 5,4 0,3 -4,4zm-8 -12c-8,33 24,24 24,10 0,-15 -14,-15 -24,-10z"/>
  </g>
  <path class="fil0" d="M-65414 20018l31 0 0 34 -23 0c0,-4 -6,-31 -8,-34zm-285 34l-22 0 0 -34 31 0c-3,12 -6,23 -9,34zm-50 -59l0 -69 191 0 0 82 -175 0c-8,0 -16,-6 -16,-13zm376 13l-175 0 0 -82 191 0 0 65c0,10 -6,17 -16,17zm-376 -155c0,-17 17,-14 28,-14 16,0 24,-2 41,-2 13,20 17,26 45,38 53,25 170,19 202,-25 11,-16 0,-11 60,-11 10,0 16,6 16,16l0 65 -392 0 0 -67zm75 -33l2 -22 234 0c12,0 34,75 -112,86 -32,2 -124,-15 -124,-64zm126 -28l0 -35 26 0 0 -22 -10 0 0 14 -16 0c0,-23 6,-61 -28,-61 -17,0 -29,11 -29,29l8 0c8,-34 39,-21 39,-4l0 79c-58,-1 -106,-60 -106,-114l0 -16c0,-94 106,-153 172,-93 3,2 6,4 8,6 57,53 48,163 -21,203 -16,9 -24,9 -43,14zm-126 -122c0,49 27,95 68,117 1,0 4,1 4,2 5,2 2,1 5,3l-85 0c0,12 -2,15 -2,26 0,8 1,4 2,13 -16,0 -36,-1 -51,0 -17,1 -27,8 -27,26l0 132c0,25 18,25 31,25l0 47 39 0 10 -47 256 0c2,16 9,32 10,47l41 0 0 -47c12,0 24,-3 24,-19l0 -144c0,-27 -45,-20 -73,-20l-2 -39 -87 -2c3,-2 1,-1 4,-2 3,-2 4,-3 7,-5 8,-4 9,-5 15,-10 9,-7 16,-14 23,-24 46,-64 25,-165 -42,-199 -88,-44 -170,29 -170,120z"/>
  <path class="fil0" d="M-65271 20056l8 0 0 -136 -10 0 0 89c0,19 2,29 2,47zm122 -65l-104 0 0 2 104 0 0 -2zm2 -73l-108 0 0 65 108 0 0 -65zm10 63l0 77 8 0 0 -136 -10 0c0,22 2,37 2,59zm10 -86l-148 0 0 17 148 0 0 -17zm-91 -164l-2 0 0 156 2 0 0 -156zm22 0l-14 0 0 156 14 0 0 -156zm-57 144c1,-4 -2,-7 -1,-1 0,0 0,8 1,1zm104 -16c1,-4 -3,-7 -1,-1 0,0 0,8 1,1zm-106 -16c1,-4 -2,-8 -1,-2 0,0 0,9 1,2zm108 -17c1,-4 -3,-7 -1,-1 0,0 0,8 1,1zm-112 -22l0 8c2,-4 2,5 2,-4 -1,-4 0,-2 -2,-4zm114 -10c1,-4 -3,-8 -1,-2 0,1 0,9 1,2zm-114 -19c1,-3 -3,-7 -1,-1 0,0 0,8 1,1zm114 -20l0 8c2,-4 2,5 2,-4 -1,-4 0,-2 -2,-4zm-94 132l11 0 0 -156 -25 0c0,31 9,116 8,140 0,9 -2,16 6,16zm-22 -144c1,-4 -3,-7 -1,-1 0,0 0,8 1,1zm110 -12l-27 0 0 156 17 0 10 -156zm24 -15c0,-5 -1,-5 -2,-10l-124 0c-20,0 -26,-4 -26,16l152 0 0 -6zm4 -16c8,15 7,18 4,31l-14 0c0,15 -2,22 -2,38l-8 118c38,0 24,-7 24,61l0 116 -26 0 0 -34c0,-14 -2,-18 -2,-31l-108 0 0 65 -26 0 -2 -177 20 0c0,-31 -4,-65 -6,-95l-2 -61 -16 0c-1,-11 -7,-9 6,-33 53,0 103,2 158,2z"/>
  <g id="_1801227864240">
   <path class="fil0" d="M-69413 19832l-24 0 0 228 25 0 -1 -228zm252 -5l-22 0 1 230 22 0 -1 -230zm35 -22l-330 1 0 16 330 -1 0 -16zm49 -17c0,-11 -6,-12 -17,-12l-390 1c-25,0 -17,21 -8,21l407 -2c4,0 8,-3 8,-8zm-17 16l-24 1 0 22 -32 0 0 236 -42 0 -1 -236 -212 1 1 240 -41 0 -1 -234c0,-8 -5,-6 -18,-6l0 -22c-19,0 -47,4 -47,-19 0,-9 7,-16 16,-16l414 -1c8,0 14,13 13,21 -3,11 -12,13 -26,13z"/>
   <path class="fil0" d="M-68939 19845l-132 -2c0,20 -4,41 -6,59 48,0 91,2 136,2l2 -59zm20 -167c-40,11 -22,120 -22,146 3,-5 4,-10 4,-16l4 -59c1,-19 8,-58 14,-71zm-8 160l3 135c0,17 2,27 2,45 0,29 8,32 -4,40 -7,-5 -7,-9 -9,-19 -7,-38 -5,-90 -6,-129l-136 0c-4,16 -10,87 -16,118 -4,17 -4,30 -16,31 -2,-10 4,-40 7,-53l17 -108c2,-18 2,-42 6,-57l-18 0 0 -6 150 2c-2,-5 -6,-40 -6,-47l0 -49c0,-18 1,-32 7,-46 6,-14 13,-22 28,-27 30,-8 4,3 -3,69 -3,32 -6,66 -6,101z"/>
   <path class="fil0" d="M-69665 19882l0 22 136 0c-1,-20 -6,-40 -6,-62l-100 3c-14,0 -18,2 -32,2 0,14 2,20 2,35zm0 -55c0,-36 17,-128 -23,-149 3,12 5,12 9,34 5,31 9,65 9,96 1,7 1,13 5,19zm12 -92c0,33 1,72 -6,104 28,0 48,-2 75,-2 28,-1 49,-3 75,-3l0 8 -18 0c4,16 8,74 12,97l21 114c-1,8 -9,8 -12,-2 -7,-19 -21,-118 -23,-141 -47,0 -88,2 -136,2 0,35 1,67 -2,102 0,6 -2,21 -3,27 -3,18 -4,17 -13,18 -4,-9 2,-69 2,-86 -1,-84 9,-197 -12,-275 -7,-24 -21,-35 4,-28 25,7 35,36 36,65z"/>
  </g>
  <g id="_1801227861648">
   <path class="fil0" d="M-66681 20060l-51 0 0 41 39 0c2,-7 4,-13 6,-20 2,-5 4,-17 6,-21zm311 41l39 0 0 -41 -51 0c4,14 9,28 12,41zm64 -98l-53 0c-133,0 -260,2 -393,2l0 47 446 0 0 -49zm0 -59l-446 2 0 53c12,-5 191,-2 222,-2 77,0 147,-2 224,-2l0 -51zm-230 -399l-216 0 0 395c27,0 47,-2 75,-2l147 0c0,-35 -2,-64 -2,-97 0,-17 0,-33 0,-49 0,-19 -3,-32 -2,-49 0,-68 -2,-129 -2,-198zm16 393l214 -2 0 -391 -222 0c0,79 4,163 4,245 0,18 2,29 2,49 0,16 0,33 0,50 0,8 0,17 0,25 0,10 2,12 2,24zm244 -417c0,-7 -6,-16 -12,-16l-478 0c-14,0 -20,30 4,30l470 0c9,0 16,-6 16,-14zm8 -4c0,20 -9,26 -28,26l0 511c0,9 -7,6 -25,6l0 49 -57 0c0,-9 -4,-17 -7,-25 -2,-9 -3,-24 -11,-24l-271 0c-7,0 -6,7 -11,22 -2,7 -6,20 -7,27l-57 0 0 -49 -18 0 0 -517c-39,0 -33,-46 -4,-46l474 0c10,0 22,9 22,20z"/>
   <path class="fil0" d="M-66486 19718l0 59 -32 0 0 -59c0,-8 8,-6 26,-6 5,0 6,2 6,6z"/>
   <path class="fil0" d="M-66370 20040l-79 0c-8,0 -6,-5 -6,-18 0,-5 1,-6 6,-6l79 0 0 24z"/>
   <polygon class="fil0" points="-66616,19985 -66699,19985 -66699,19961 -66616,19961 "/>
   <polygon class="fil0" points="-66368,19983 -66453,19983 -66453,19961 -66368,19961 "/>
   <polygon class="fil0" points="-66618,20040 -66701,20040 -66701,20018 -66618,20018 "/>
   <path class="fil0" d="M-66543 19720l0 59 -33 0 0 -59c0,-9 8,-6 27,-6 4,0 6,1 6,6z"/>
  </g>
  <g id="_1801227856464">
   <path class="fil0" d="M-2141 -7372l-137 0 0 110 104 0c4,-19 10,-35 17,-54 4,-13 11,-46 16,-56zm836 110l104 0 0 -110 -137 0c9,38 25,74 33,110zm169 -263l-142 0c-357,0 -697,6 -1055,6l0 125 1197 0 0 -131zm0 -158l-1197 5 0 142c32,-15 514,-5 596,-5 207,0 395,-6 601,-6l0 -136zm-617 -1072l-580 0 0 1061c74,0 128,-6 202,-6l394 0c0,-94 -5,-173 -5,-262 0,-44 0,-88 0,-131 0,-52 -6,-86 -6,-131 1,-183 -5,-348 -5,-531zm43 1055l574 -5 0 -1050 -595 0c0,212 12,436 10,656 0,48 6,80 6,131 0,46 0,92 0,137 0,22 -1,45 0,66 1,28 5,33 5,65zm656 -1120c0,-20 -15,-44 -32,-44l-1285 0c-37,0 -52,82 11,82l1263 0c23,0 43,-17 43,-38zm22 -11c0,53 -24,71 -76,71l0 1372c0,23 -19,16 -66,16l0 132 -153 0c-2,-25 -11,-47 -18,-69 -8,-22 -10,-63 -31,-63l-727 0c-20,0 -16,18 -30,58 -6,19 -18,55 -19,74l-154 0 0 -132 -49 0 0 -1388c-104,0 -87,-126 -11,-126l1274 0c29,0 60,24 60,55z"/>
   <path class="fil1 str0" d="M-1617 -8290l0 158 -87 0 0 -158c0,-23 21,-17 71,-17 13,0 16,4 16,17z"/>
   <polygon class="fil1 str0" points="-1300,-7579 -1529,-7579 -1529,-7640 -1300,-7640 "/>
   <path class="fil1 str0" d="M-1772 -8286l0 158 -87 0 0 -158c0,-23 21,-16 71,-16 13,0 16,3 16,16z"/>
   <polygon class="fil1 str0" points="-1969,-7582 -2199,-7582 -2199,-7642 -1969,-7642 "/>
   <polygon class="fil1 str0" points="-1307,-7432 -1537,-7432 -1537,-7492 -1307,-7492 "/>
   <polygon class="fil1 str0" points="-1977,-7435 -2206,-7435 -2206,-7495 -1977,-7495 "/>
  </g>
  <path class="fil0" d="M-8150 -1582l0 -53 -428 -14c-82,-2 -100,-17 -106,54 194,0 352,13 534,13zm-40 -627l-454 0c0,92 -21,440 -40,520l534 0c-14,-165 -40,-341 -40,-520zm-507 0l-93 0 0 920c41,-48 24,-86 38,-215l55 -705zm653 920l0 -920 -93 0c1,59 10,47 13,107l44 596c15,111 -5,169 36,217zm240 -1040l-13 -80 -1121 0c-127,-2 -119,-14 -119,107 0,65 151,40 280,40l960 0c7,-30 13,-31 13,-67zm-920 -253c0,67 -1,69 -13,120l93 0c0,-107 -3,-69 -80,-120zm454 67c-39,9 -117,26 -160,26 -61,0 -111,-15 -160,-26l0 53 320 0 0 -53zm146 -80c-29,19 -80,38 -80,80l0 53 80 0 0 -133zm-320 53c240,0 440,-201 480,-373 -96,110 -116,333 -506,333 -240,0 -339,-182 -418,-315 -16,-27 -7,-14 -22,-32 45,197 259,387 466,387zm494 -400c0,-34 -22,-2 -8,0 0,0 8,37 8,0zm-960 -13c4,-26 -17,-48 -9,-9 0,1 0,55 9,9zm973 -27c5,-25 -17,-47 -9,-8 1,0 0,55 9,8zm-987 -27c5,-25 -17,-47 -8,-8 0,1 -1,55 8,8zm987 -80l0 54c16,-25 15,29 11,-27 -2,-29 0,-11 -11,-27zm-1000 -146l-13 0 0 160 13 0 0 -160zm493 613c256,0 454,-248 454,-507 0,-174 -25,-252 -120,-387 -230,-325 -774,-137 -774,361 0,141 60,275 122,358 55,75 195,175 318,175zm507 -653l0 53c16,-25 15,30 11,-27 -2,-29 0,-11 -11,-26zm-987 -14c5,-25 -17,-47 -8,-8 0,1 -1,55 8,8zm987 -26c5,-26 -17,-48 -9,-9 1,1 0,55 9,9zm-493 -414c202,0 372,136 443,303l37 71c-24,-103 -101,-223 -170,-284 -393,-344 -784,78 -804,310l67 -146c79,-137 234,-254 427,-254zm573 560c0,118 -23,213 -59,302 -115,288 -141,44 -141,405 231,0 357,-48 293,227 -75,36 -120,26 -213,26l0 934c0,54 -42,40 -147,40 0,-119 -13,-186 -13,-307l-560 0c0,121 -13,188 -13,307 -105,0 -147,14 -147,-40l0 -934c-279,0 -253,4 -253,-186 0,-95 207,-67 320,-67 0,-161 42,-121 -23,-191 -248,-266 -253,-727 -41,-953 160,-170 245,-203 464,-203 299,0 533,341 533,640z"/>
  <path class="fil0" d="M543 -8094l69 2 -10 576 -94 -2c3,-102 12,-184 15,-288l20 -288zm84 604l-129 -3c-36,-8 -14,-34 -11,-139l10 -156c5,-53 2,-110 5,-163l10 -150c-149,-5 -276,-14 -426,-19 -1,59 -9,98 -10,150l-20 464 -150 -4 26 -470c2,-59 9,-93 10,-150l-438 -19 -24 627c-38,-1 -51,-9 -94,-9 -82,0 -43,-13 -37,-246 1,-33 1,-68 3,-100 2,-34 8,-52 9,-94 1,-33 2,-67 3,-100 1,-40 8,-56 9,-88l-101 -3c-34,-1 -20,-40 -15,-74 10,-81 5,-69 37,-70 147,-2 205,13 308,16l307 15c145,4 269,14 413,18 76,2 129,10 207,12l200 12 2 144 -94 -3c-2,89 2,156 0,245l-10 357zm-1178 -58l-81 -9c6,-204 24,-390 29,-595 37,1 44,8 75,9l-23 595zm583 16l-94 -2c6,-202 24,-387 29,-589l88 2c-6,204 -17,386 -23,589zm-20 -634l3 -81c232,6 453,25 682,32 -1,41 5,61 4,106 -33,-16 -129,-10 -176,-11l-263 -13c-40,-1 -54,-8 -87,-9 -64,-4 -163,9 -163,-24zm-38 18l-175 -11c-59,-2 -123,-2 -182,-5 -33,-2 -42,-8 -81,-9l-171 -6c-31,2 -48,-6 -86,-7 1,-22 10,-81 16,-100 38,1 48,7 81,8 72,5 212,0 268,10 50,8 192,10 258,11 40,1 56,8 88,9 -3,28 -13,72 -16,100z"/>
  <path class="fil0" d="M-8627 -7567l53 0 0 -79 -68 0c0,30 13,50 15,79zm-794 -90l-69 0 0 80 53 0c2,-28 12,-52 16,-80zm768 -148c8,-36 13,-76 21,-111 -138,0 -275,0 -413,0 -141,0 -266,-6 -408,-6 32,139 -22,117 111,117l689 0zm-906 127l270 0c39,0 55,5 90,6l271 -1c34,0 51,6 89,6l271 -1c83,3 58,56 91,-173 7,-48 14,-112 25,-160l-143 0c0,30 -11,79 -17,110 -7,33 -12,73 -20,107l-806 1c-27,-3 -20,-10 -24,-40l-28 -178 -117 0c4,7 48,300 48,323zm90 -344c1,15 7,41 9,55 6,44 9,29 161,29l583 0c74,0 83,29 91,-24 3,-18 9,-37 9,-60l58 0 32 -318c-62,0 -109,5 -175,5l-811 0c-55,-1 -44,-7 -42,37l15 208c8,74 -25,68 70,68zm938 0l106 0 -40 277c-5,31 -13,71 -13,99l-74 0 0 95 -96 0c-2,-30 -14,-67 -21,-95 -235,0 -486,-11 -726,-11 -6,26 -20,68 -21,96l-95 0 0 -101 -69 0 -53 -360 74 0c0,-80 -21,-242 -21,-329l1065 -5c20,0 14,26 7,71 -4,30 -6,58 -7,88 -4,55 -16,115 -16,175z"/>
  <path class="fil0" d="M-7914 -7855l-77 0c-86,0 -149,6 -235,6l0 32 318 0c-3,-15 -6,-19 -6,-38zm-13 -121l-280 0c-5,21 -13,77 -13,102l306 0c-6,-26 -13,-72 -13,-102zm70 382l25 0 0 -376 -63 0c0,67 15,121 19,185 4,64 19,123 19,191zm-382 -376l-64 0 0 382 19 0c1,-22 9,-72 11,-91l22 -194c4,-26 12,-68 12,-97zm439 -51c0,-107 -6,-68 -127,-70l-382 -6c-47,0 -38,25 -38,76 0,15 10,26 25,26l497 0c15,0 25,-11 25,-26zm-407 -146l-64 0 0 51 64 0 0 -51zm235 0l-203 0 0 51 203 0 0 -51zm90 0l-58 0 0 51 58 0 0 -51zm101 -529l-573 0 49 448c4,29 -6,55 21,55l421 0c25,0 23,-52 30,-115l34 -260c2,-18 14,-117 18,-128zm19 -19c17,64 -17,204 -25,280 -8,70 -32,208 -32,261 -17,9 -7,6 -32,7l0 51c89,0 77,8 77,108 0,19 -16,27 -32,32l0 407c-99,0 -70,15 -86,-104 -6,-41 -8,-84 -16,-119l-325 0 -25 223 -76 0 0 -407c-70,-6 -52,-140 -7,-140l45 0 0 -51 -32 0c0,-117 -62,-471 -45,-548 66,-15 480,-6 580,-6 10,0 24,3 31,6z"/>
  <path class="fil0" d="M-10814 -8148l0 -82 -41 0c4,13 17,26 31,61l9 18c0,1 1,2 1,3zm69 -82l-46 0 0 86c1,-1 1,-3 2,-3 2,9 2,-5 2,-6 23,-57 4,-21 42,-77zm537 -37l-1175 0c-14,0 -13,6 -14,19l1203 0c-1,-13 0,-19 -14,-19zm28 32c-56,13 -203,5 -274,5 -91,0 -177,4 -273,4 -34,65 -38,48 -52,145 -7,51 11,120 31,159 20,40 55,81 91,105 30,20 65,34 100,45 19,6 26,4 35,16 -2,4 -3,9 -9,9 -34,0 -130,-45 -165,-76 -23,-21 -38,-38 -55,-64 -28,-46 -18,-35 -34,-71l-6 215 -23 0 0 -227c-3,4 0,-2 -5,8l-11 34c-27,64 -86,122 -151,150 -16,7 -77,31 -92,31 -7,0 -7,-6 -10,-9 12,-16 3,-5 49,-20 60,-20 87,-37 130,-79 84,-83 104,-227 49,-334 -8,-16 -14,-20 -22,-37 -45,0 -89,0 -133,0 -45,1 -78,-4 -127,-4l-275 -12c-12,-15 -2,-38 15,-38l1203 0c17,0 27,18 14,45z"/>
  <path class="fil0" d="M-9787 -7841l-246 0 0 14 246 0 0 -14zm-14 -136c-58,0 -116,1 -174,0 -80,-1 -30,-3 -58,116l246 0c-7,-14 -8,-91 -14,-116zm-242 0l-48 0 0 349 14 0 34 -349zm300 349l14 0 0 -349 -48 0 34 349zm14 -383l-362 0 0 15 362 0 0 -15zm34 -53c0,-29 -14,-38 -43,-38l-339 0c-50,0 -43,22 -43,53 0,11 8,19 19,19l387 0c15,0 19,-19 19,-34zm20 -19c0,31 7,62 -34,72l0 402c-71,0 -55,17 -63,-92 -3,-34 -10,-66 -10,-106l-256 0c0,34 -6,72 -9,102 -12,111 12,96 -64,96l0 -392c0,-23 -34,-9 -34,-63 0,-30 14,-53 44,-53l382 0c20,0 44,16 44,34z"/>
  <path class="fil0" d="M-15754 -7707l-120 0 0 92 93 0c3,-16 8,-32 13,-46 4,-14 9,-36 14,-46zm2100 92l92 0 0 -97 -120 0c5,12 27,82 28,97zm-1608 -607l-608 0 0 492 608 0 0 -492zm1065 394l-1042 0 0 98 1042 0 0 -98zm631 -394l-607 0 0 492 607 0 0 -492zm-631 269l-1042 0 0 111 1042 0 0 -111zm-532 -269l-510 0 0 255 510 0 0 -255zm532 0l-509 0c0,84 -5,152 -5,237l0 18 514 0 0 -255zm654 621c-155,0 -121,12 -141,-49 -6,-20 -15,-40 -17,-62l-2029 0c-19,38 -25,116 -47,116l-116 0 0 -640 2350 0 0 635z"/>
  <path class="fil0" d="M-7550 -7931l388 0 0 13 -388 0 0 -13zm7 -112l0 -46 368 0 6 132 -381 0c0,-38 7,-46 7,-86zm400 -46l14 0c0,138 26,389 26,533l-30 -398c-7,-47 -10,-83 -10,-135zm-473 533c2,-25 7,-27 7,-59 2,-170 20,-314 20,-474l19 0c0,33 -6,33 -6,66l-7 138c-1,29 -6,31 -7,66l-13 203c1,35 8,45 -13,60zm-6 -592c12,-8 11,-13 26,-13 94,0 433,-9 499,7 0,49 7,39 -98,39l-421 0c-4,-18 -4,-12 -6,-33zm420 -33l-309 0c-6,-26 -13,-74 -13,-105l335 0c-6,26 -13,74 -13,105zm-322 -138l335 0 0 7 -335 0 0 -7zm342 -26l-348 0c-4,-15 -7,-15 -7,-33l0 -26 362 0c-3,25 -7,26 -7,59zm-361 -92l368 0 0 7 -368 0 0 -7zm-53 -92l13 0c0,63 40,290 40,348l-14 0c-1,-71 -39,-262 -39,-348zm426 66l-373 0c-4,-15 -7,-15 -7,-33l0 -33 388 0 -8 66zm14 282c-23,-2 -21,22 -8,-74l22 -188c1,-23 3,-27 5,-48 3,-34 -8,-30 21,-38 -8,93 -40,261 -40,348zm-466 -486l519 0c0,36 -6,82 -13,112l-493 0c-1,-38 -13,-70 -13,-112zm33 486c-80,0 -74,73 -27,86 0,49 -6,82 -6,138l-13 203c-2,24 1,49 0,73l-7 144 66 0c0,-121 19,-234 19,-361l395 0 20 321c1,21 5,24 6,47l66 0 -12 -205c-3,-25 -1,-53 -1,-78 -1,-34 -5,-36 -7,-65 -1,-24 1,-49 0,-73l-7 -144c41,-11 63,-86 -32,-86 8,-104 59,-431 59,-506l-585 0c0,72 26,159 37,245l29 261z"/>
  <path class="fil0" d="M508 -3519l-837 0 0 50 837 0 0 -50zm-49 -459c-197,0 -395,3 -591,0 -271,-4 -102,-12 -197,394l837 0c-23,-49 -30,-311 -49,-394zm-820 0l-164 0 0 1181 49 0 115 -1181zm1016 1181l50 0 0 -1181 -164 0 114 1181zm50 -1296l-1230 0 0 50 1230 0 0 -50zm114 -180c0,-99 -47,-131 -147,-131l-1148 0c-172,0 -148,77 -148,180 0,39 28,66 66,66l1312 0c53,0 65,-65 65,-115zm66 -66c0,106 24,209 -115,246l0 1362c-240,0 -186,56 -214,-311 -9,-118 -32,-227 -32,-362l-869 0c0,116 -19,246 -30,347 -40,378 42,326 -216,326l0 -1329c0,-77 -115,-30 -115,-213 0,-102 47,-180 148,-180l1295 0c68,0 148,55 148,114z"/>
  <g id="_1801227849968">
   <path class="fil0" d="M-18293 -7803c-38,0 -24,59 -24,112 0,42 0,85 0,128l4 0c0,-37 10,-88 16,-124l15 -94c2,-13 2,-22 -11,-22zm2217 220l4 -172c0,-44 6,-48 -24,-48 -18,0 -9,14 -5,45 6,43 25,143 25,175zm4 -252l-2253 0 0 16 2253 0 0 -16zm0 -32l-2249 0 0 16 2249 0 0 -16zm-1546 -192l-707 0 0 176 707 0 0 -176zm811 0l-791 0 0 176 791 0 0 -176zm735 0l-715 0 0 176 715 0 0 -176zm-1546 -223l-707 0 0 207 707 0 0 -207zm811 0l-791 0 0 207 791 0 0 -207zm735 0l-715 0 0 207 715 0 0 -207zm0 -64l-2253 0 0 48 2253 0 0 -48zm20 527l0 248c0,17 -8,28 -24,28 -18,0 -14,-29 -19,-57 -6,-37 -29,-175 -29,-203l-2137 0 -34 226c-5,41 -6,47 -38,26l0 -233c1,-17 8,-18 -8,-19l0 -559 2289 0 0 543z"/>
   <path class="fil0" d="M-17179 -8198l-24 0c-17,0 -24,6 -28,20l80 0c-3,-14 -11,-20 -28,-20zm48 16c0,29 -31,19 -104,19 -22,0 -32,-51 52,-51 21,0 52,14 52,32z"/>
   <path class="fil0" d="M-16408 -7967l-24 0c-17,0 -24,7 -28,20l80 0c-4,-13 -11,-20 -28,-20zm48 20c0,21 -26,16 -48,16 -22,0 -45,0 -68,0 -8,-36 10,-52 56,-52 28,0 60,11 60,36z"/>
   <path class="fil0" d="M-17962 -8198c-9,0 -12,1 -20,4 -14,4 -6,4 -20,8l0 12 80 0c-1,-19 -18,-24 -40,-24zm60 24c0,25 -51,15 -104,15 -27,0 -18,-51 32,-51 26,0 72,-4 72,36z"/>
   <path class="fil0" d="M-17183 -7967c-24,0 -46,-3 -52,20l84 0c-6,-12 0,-6 -10,-13 -6,-4 -13,-7 -22,-7zm48 20c0,26 -51,16 -104,16 -20,0 -24,-52 52,-52 25,0 52,11 52,36z"/>
   <path class="fil0" d="M-17950 -7967c-17,0 -22,-1 -35,5 -10,5 -10,4 -13,15l84 0c-8,-16 -12,-20 -36,-20zm52 32c-32,8 -70,4 -104,4 -20,0 -24,-52 52,-52 14,0 28,5 38,11 15,8 14,16 14,37z"/>
   <path class="fil0" d="M-16424 -8198c-19,0 -36,8 -40,24l84 0c-5,-19 -25,-24 -44,-24zm60 24c0,25 -68,15 -112,15l-4 -23c0,-36 116,-45 116,8z"/>
  </g>
  <g id="_1801227849616">
   <path class="fil0" d="M-3796 -2585l146 -1 0 108 -126 0 -20 -107zm-1562 107l-72 0 0 -108 144 0c-13,54 -11,108 -72,108zm54 -180l1546 0 0 18 -1546 0 0 -18zm-18 -755l1564 0 0 701 -1564 0 0 -701zm0 -863l1546 0 0 755 -1546 0 0 -755zm0 -72l1546 0 0 18 -1546 0 0 -18zm-108 -216l1780 0 0 162 -1780 0 0 -162zm-54 2140c236,0 225,29 270,-162l1366 0c45,191 34,162 270,162 0,-172 -18,-275 -18,-450l0 -1744 -1888 0 0 2194z"/>
   <path class="fil0" d="M-4585 -3018l0 -54 36 0c-17,72 -35,52 -36,54zm-108 -18c0,89 234,196 234,-36 0,-114 -234,-141 -234,36z"/>
   <path class="fil0" d="M-4603 -3863c11,-42 5,-70 38,-38 39,40 -6,24 -38,38zm-72 -108c-68,293 216,216 216,90 0,-136 -130,-132 -216,-90z"/>
  </g>
  <path class="fil0" d="M-4109 -7329l93 0 0 104 -68 0c-1,-13 -21,-95 -25,-104zm-860 104l-68 0 0 -104 92 0c-8,35 -16,70 -24,104zm-154 -178l0 -209 578 0 0 246 -529 0c-22,0 -49,-17 -49,-37zm1137 37l-528 0 0 -246 577 0 0 197c0,30 -19,49 -49,49zm-1137 -467c0,-51 53,-44 86,-43 49,0 73,-6 123,-6 40,60 53,80 135,116 163,73 515,58 612,-77 33,-47 -1,-33 181,-33 30,0 49,19 49,49l0 197 -1186 0 0 -203zm227 -99l6 -67 708 0c35,0 104,227 -339,258 -97,7 -375,-45 -375,-191zm382 -86l0 -104 79 0 0 -68 -30 0 0 43 -49 0c0,-71 18,-184 -87,-184 -51,0 -86,34 -86,86l25 0c24,-102 117,-61 117,-12l0 239c-174,-4 -320,-180 -320,-344l0 -49c0,-285 321,-461 521,-281 9,7 16,12 23,19 172,160 146,491 -65,612 -46,27 -70,30 -128,43zm-382 -369c0,149 82,289 207,353 2,1 11,5 13,6 12,8 6,3 14,10l-258 0c0,38 -6,45 -6,80 0,23 4,12 6,37 -48,0 -107,-3 -154,0 -50,4 -80,27 -80,80l0 400c0,75 53,73 92,73l0 142 117 0 31 -142 775 0c4,49 27,97 30,142l123 0 0 -142c35,0 74,-8 74,-55l0 -436c0,-82 -138,-62 -221,-62l-6 -117 -264 -5c9,-6 4,-3 11,-7 9,-5 15,-8 24,-13 22,-13 25,-16 43,-31 28,-22 49,-45 69,-73 139,-193 77,-500 -125,-600 -267,-134 -515,87 -515,360z"/>
  <path class="fil0" d="M-3336 -7535l33 0 0 -564 -42 0 0 370c0,77 9,118 9,194zm504 -270l-429 0 0 9 429 0 0 -9zm9 -302l-446 0 0 269 446 0 0 -269zm42 260l0 320 33 0 0 -564 -42 0c0,92 9,152 9,244zm42 -353l-614 0 0 67 614 0 0 -67zm-379 -681l-8 0 0 647 8 0 0 -647zm93 0l-59 0 0 647 59 0 0 -647zm-236 597c3,-16 -10,-30 -5,-5 0,0 0,34 5,5zm429 -67c3,-16 -10,-30 -5,-6 0,1 0,35 5,6zm-437 -68c3,-16 -11,-30 -5,-5 0,1 -1,35 5,5zm446 -67c3,-16 -11,-30 -6,-5 1,0 0,34 6,5zm-463 -92l0 33c10,-16 10,19 7,-17 -1,-18 0,-7 -7,-16zm471 -42c3,-16 -10,-30 -5,-6 0,1 0,35 5,6zm-471 -76c3,-16 -10,-30 -5,-6 0,1 0,35 5,6zm471 -84l0 33c10,-15 10,19 7,-16 -1,-19 0,-8 -7,-17zm-387 546l42 0 0 -647 -101 0c0,132 36,482 34,580 -1,36 -9,67 25,67zm-92 -597c3,-16 -11,-30 -6,-5 1,0 0,35 6,5zm454 -50l-109 0 0 647 67 0 42 -647zm101 -59c0,-23 -4,-23 -9,-42l-513 0c-81,-1 -109,-19 -109,67l631 0 0 -25zm17 -67c32,60 29,73 17,126l-59 0c0,63 -8,94 -8,160l-34 487c159,0 101,-28 101,253l0 479 -110 0 0 -143c0,-56 -8,-73 -8,-126l-446 0 0 269 -109 0 -9 -732 84 0c0,-130 -14,-269 -24,-395l-9 -252 -68 0c-3,-44 -28,-34 26,-135 222,0 427,9 656,9z"/>
  <g id="_1801227845456">
   <path class="fil0" d="M-12706 -8001l-58 0 2 541 58 0 -2 -541zm599 -12l-53 0 2 546 53 0 -2 -546zm82 -53l-782 2 0 39 782 -2 0 -39zm116 -39c0,-25 -14,-29 -39,-29l-927 3c-59,0 -41,49 -19,48l965 -3c12,0 20,-8 20,-19zm-39 39l-58 0 0 53 -77 0 2 560 -101 1 -2 -560 -502 1 1 570 -96 0 -2 -555c0,-19 -12,-14 -43,-14l-1 -53c-45,0 -111,10 -111,-44 0,-23 15,-38 39,-38l980 -3c21,-1 35,30 31,49 -7,28 -29,33 -60,33z"/>
   <path class="fil0" d="M-11581 -7971l-313 -4c0,47 -11,97 -15,140 114,0 215,4 324,4l4 -140zm47 -396c-95,26 -52,285 -52,348 8,-12 10,-25 10,-39l9 -140c3,-45 18,-137 33,-169zm-18 381l6 319c0,41 5,64 5,106 0,70 19,78 -9,97 -18,-12 -16,-22 -21,-47 -16,-88 -14,-213 -14,-305l-323 1c-9,37 -25,204 -39,279 -8,41 -10,71 -38,73 -5,-23 11,-94 16,-124l40 -258c5,-42 7,-98 15,-135l-43 1 0 -15 357 5c-5,-11 -14,-94 -15,-112l0 -116c1,-42 4,-76 17,-108 14,-33 30,-53 67,-64 70,-20 9,6 -7,162 -8,77 -14,156 -14,241z"/>
   <path class="fil0" d="M-13304 -7883l0 53 324 -1c-4,-46 -15,-95 -15,-145l-237 5c-33,0 -44,6 -77,6 0,33 5,47 5,82zm0 -131c-1,-85 41,-301 -55,-352 7,28 13,29 21,81 12,73 22,155 24,228 0,15 1,30 10,43zm28 -217c0,79 3,171 -14,246 66,0 114,-5 179,-5 66,0 115,-5 178,-6l0 20 -43 0c9,37 19,175 28,228l49 271c-2,20 -19,20 -28,-6 -16,-45 -49,-279 -53,-334 -113,1 -210,6 -324,6 0,83 2,159 -4,241 -1,16 -5,51 -8,65 -8,42 -8,41 -30,42 -10,-20 4,-164 4,-203 -2,-199 22,-467 -29,-653 -16,-56 -48,-83 11,-66 59,17 84,85 84,154z"/>
  </g>
  <g id="_1801227844208">
   <path class="fil0" d="M-59303 14547l-23 9 98 269c4,-2 4,-3 9,-5l13 -5 -97 -268zm3 112l-158 57 48 134 159 -58 -49 -133zm-457 53l-24 9 98 270 23 -9 -20 -53c-27,-74 -50,-143 -77,-217zm421 -153l-157 57 15 40c7,20 10,33 17,53l159 -58 -34 -92zm-166 60l-245 89 22 62 245 -89 -22 -62zm201 -96c-2,-6 -13,-9 -20,-6l-468 170c-7,3 -10,5 -14,9 0,7 0,24 19,17l474 -174c10,-4 12,-7 9,-16zm4 18l102 279 -39 14c-8,-24 -10,-38 -19,-34l-162 59 -62 -171 -247 90 53 145c8,24 12,41 21,64l-39 12 -101 -277c-26,3 -30,-30 -11,-37l484 -176c20,-7 35,21 20,32z"/>
   <path class="fil0" d="M-59594 14683l-42 15 3 8 42 -15 -3 -8zm15 12l-61 22 -8 -23 61 -22 8 23z"/>
   <path class="fil0" d="M-59346 14710l-44 16 3 8 44 -16 -3 -8zm13 12l-61 23 -8 -23 61 -22 8 22z"/>
   <path class="fil0" d="M-59377 14613l-44 16 3 8 44 -16 -3 -8zm9 -5l6 17 -61 22 -8 -23 55 -20c5,-2 7,-1 8,4z"/>
  </g>
  <g id="_1801227842160">
   <path class="fil0" d="M-5390 -8194l-64 0 0 756c12,-3 12,-5 27,-5l37 0 0 -751zm-91 279l-445 0 0 375 445 0 0 -375zm-1179 -279l-70 0 0 756 65 0 0 -150c0,-208 5,-398 5,-606zm1179 0l-439 0 0 113c0,55 -6,90 -6,145l445 0 0 -258zm-466 0l-686 0 0 172 686 0 0 -172zm584 -59c0,-17 -23,-32 -43,-32l-1313 0c-19,0 -30,5 -43,11 -4,17 -19,59 32,59l1330 -5c28,0 37,-6 37,-33zm-5 49l0 782 -108 0c0,-66 10,-102 -16,-102l-455 0 0 -477 -692 0 0 408c0,66 -5,111 -5,176l-107 -6 0 -776c-68,-16 -47,-102 5,-102l1356 0c56,0 69,84 22,97z"/>
   <path class="fil0" d="M-6231 -8119l-118 0 0 22 118 0 0 -22zm27 43l-172 0 0 -64 172 0 0 64z"/>
   <path class="fil0" d="M-5642 -7829l-123 0 0 21 123 0 0 -21zm22 43l-172 0 0 -65 172 0 0 65z"/>
   <path class="fil0" d="M-5631 -8097l-123 0 0 21 123 0 0 -21zm27 -6l0 49 -172 0 0 -65 156 0c12,0 16,4 16,16z"/>
  </g>
  <path class="fil0" d="M-67713 18411c-7,-19 -8,-30 -16,-28l-224 59 5 26 185 -47c19,-5 31,-5 50,-10zm-22 -60l-225 57 3 12c2,7 1,8 2,14l229 -58c-3,-12 -6,-14 -9,-25zm81 204l12 -3 -53 -209 -29 8c8,34 48,136 61,177 4,10 8,20 9,27zm-313 -145l-32 8 54 213 14 -3c-9,-37 -12,-73 -19,-109l-17 -109zm285 -100c-2,-9 -13,-15 -22,-13l-312 79c-24,6 -16,44 14,37l303 -77c14,-4 20,-12 17,-26zm7 -5c9,35 -13,25 -9,38l54 213 -30 7c-7,-13 -19,-53 -26,-72l-26 -74 -236 60c9,36 18,121 27,157 -22,5 -31,11 -33,2l-55 -215c-9,2 -12,1 -18,-3 -22,-15 -11,-42 4,-46l323 -82c10,-3 22,5 25,15z"/>
  <path class="fil0" d="M2172 1634c-7,-86 -1,-136 -36,-136l-1035 9 -10 118 854 0c89,0 140,9 227,9zm-27 -282l-1035 0 0 55c0,31 -7,35 -9,64l1053 0c0,-56 -9,-67 -9,-119zm127 972l55 0 0 -963 -136 0c0,159 57,643 72,837 3,44 9,91 9,126zm-1199 -972l-145 0 0 981 64 0c0,-167 27,-326 36,-490l45 -491zm1345 -118c0,-45 -37,-81 -82,-81l-1435 0c-111,0 -118,172 18,172l1399 0c62,0 100,-29 100,-91zm36 -18c0,162 -82,95 -82,155l0 981 -136 0c-15,-65 -23,-253 -34,-339l-30 -352 -1090 0c0,168 -54,544 -54,709 -99,0 -145,14 -145,-27l0 -991c-42,-1 -55,-9 -76,-33 -78,-87 -1,-194 66,-194l1490 0c46,0 91,45 91,91z"/>
 </g>
</svg>
