<?xml version="1.0" encoding="UTF-8"?>
<!DOCTYPE svg PUBLIC "-//W3C//DTD SVG 1.1//EN" "http://www.w3.org/Graphics/SVG/1.1/DTD/svg11.dtd">
<!-- Creator: CorelDRAW X7 -->
<svg xmlns="http://www.w3.org/2000/svg" xml:space="preserve" width="3.47166cm" height="2.05cm" version="1.1" style="shape-rendering:geometricPrecision; text-rendering:geometricPrecision; image-rendering:optimizeQuality; fill-rule:evenodd; clip-rule:evenodd"
viewBox="0 0 3472 2050"
 xmlns:xlink="http://www.w3.org/1999/xlink">
 <defs>
  <style type="text/css">
   <![CDATA[
    .fil0 {fill:#9AD2AF}
   ]]>
  </style>
 </defs>
 <g id="Layer_x0020_1">
  <metadata id="CorelCorpID_0Corel-Layer"/>
  <g id="_2052371880272">
   <path class="fil0" d="M2206 839l102 0 0 949 -102 0 0 -949zm-1050 -16l94 0 0 956 -94 0 0 -956zm-143 -94l1371 0 0 68 -1371 0 0 -68zm-204 -67c0,-45 25,-51 68,-51l1626 0c103,0 71,85 34,85l-1694 0c-20,0 -34,-14 -34,-34zm68 67l102 0 0 94 135 0 0 982 178 0 0 -982 880 0 0 999 170 0 0 -974c0,-33 22,-25 76,-25l0 -94c80,0 195,18 195,-76 0,-41 -27,-68 -68,-68l-1719 0c-36,0 -61,55 -53,87 10,49 49,57 104,57z"/>
   <path class="fil0" d="M234 899l550 -9c0,82 19,170 25,246 -198,0 -376,8 -567,8l-8 -245zm-85 -695c166,45 93,499 93,610 -13,-20 -16,-43 -17,-67l-17 -246c-5,-80 -32,-240 -59,-297zm34 669l-9 559c1,72 -9,111 -8,186 1,123 -33,136 17,170 31,-21 28,-38 36,-82 28,-155 23,-374 23,-536l567 0c16,65 44,359 70,489 14,71 17,125 66,129 9,-41 -19,-166 -28,-218l-72 -453c-9,-73 -12,-171 -27,-235l76 0 0 -26 -626 11c8,-20 23,-166 25,-197l0 -203c-2,-74 -8,-133 -31,-189 -24,-58 -53,-93 -118,-112 -122,-36 -16,11 13,284 15,134 26,274 26,423z"/>
   <path class="fil0" d="M3256 1043l0 93 -567 0c7,-80 25,-166 25,-254l415 8c58,0 78,9 136,9 0,59 -9,82 -9,144zm0 -229c0,-149 -75,-529 93,-618 -11,50 -21,51 -36,141 -21,129 -37,272 -40,401 0,27 -2,53 -17,76zm-51 -381c0,139 -5,299 26,432 -116,0 -200,-9 -313,-9 -116,0 -203,-8 -314,-8l0 34 76 0c-15,65 -33,307 -48,400l-83 476c2,34 33,34 49,-10 27,-80 83,-491 91,-587 198,0 368,9 567,9 0,145 -2,278 9,423 2,27 10,89 14,113 14,74 15,72 53,73 17,-35 -8,-287 -8,-355 2,-349 -42,-820 48,-1146 26,-98 83,-145 -21,-115 -103,30 -146,149 -146,270z"/>
   <path class="fil0" d="M2206 839l102 0 0 949 -102 0 0 -949zm-1050 -16l94 0 0 956 -94 0 0 -956zm-143 -94l1371 0 0 68 -1371 0 0 -68zm-204 -67c0,-45 25,-51 68,-51l1626 0c103,0 71,85 34,85l-1694 0c-20,0 -34,-14 -34,-34zm68 67l102 0 0 94 135 0 0 982 178 0 0 -982 880 0 0 999 170 0 0 -974c0,-33 22,-25 76,-25l0 -94c80,0 195,18 195,-76 0,-41 -27,-68 -68,-68l-1719 0c-36,0 -61,55 -53,87 10,49 49,57 104,57z"/>
   <path class="fil0" d="M234 899l550 -9c0,82 19,170 25,246 -198,0 -376,8 -567,8l-8 -245zm-85 -695c166,45 93,499 93,610 -13,-20 -16,-43 -17,-67l-17 -246c-5,-80 -32,-240 -59,-297zm34 669l-9 559c1,72 -9,111 -8,186 1,123 -33,136 17,170 31,-21 28,-38 36,-82 28,-155 23,-374 23,-536l567 0c16,65 44,359 70,489 14,71 17,125 66,129 9,-41 -19,-166 -28,-218l-72 -453c-9,-73 -12,-171 -27,-235l76 0 0 -26 -626 11c8,-20 23,-166 25,-197l0 -203c-2,-74 -8,-133 -31,-189 -24,-58 -53,-93 -118,-112 -122,-36 -16,11 13,284 15,134 26,274 26,423z"/>
   <path class="fil0" d="M3256 1043l0 93 -567 0c7,-80 25,-166 25,-254l415 8c58,0 78,9 136,9 0,59 -9,82 -9,144zm0 -229c0,-149 -75,-529 93,-618 -11,50 -21,51 -36,141 -21,129 -37,272 -40,401 0,27 -2,53 -17,76zm-51 -381c0,139 -5,299 26,432 -116,0 -200,-9 -313,-9 -116,0 -203,-8 -314,-8l0 34 76 0c-15,65 -33,307 -48,400l-83 476c2,34 33,34 49,-10 27,-80 83,-491 91,-587 198,0 368,9 567,9 0,145 -2,278 9,423 2,27 10,89 14,113 14,74 15,72 53,73 17,-35 -8,-287 -8,-355 2,-349 -42,-820 48,-1146 26,-98 83,-145 -21,-115 -103,30 -146,149 -146,270z"/>
  </g>
 </g>
</svg>
